<!DOCTYPE svg PUBLIC "-//W3C//DTD SVG 1.1//EN" "http://www.w3.org/Graphics/SVG/1.1/DTD/svg11.dtd">
<!-- Uploaded to: SVG Repo, www.svgrepo.com, Transformed by: SVG Repo Mixer Tools -->
<svg fill="#6d5600" height="120px" width="120px" version="1.1" id="Layer_1" xmlns="http://www.w3.org/2000/svg" xmlns:xlink="http://www.w3.org/1999/xlink" viewBox="0 0 512 512" xml:space="preserve">
<g id="SVGRepo_bgCarrier" stroke-width="0"/>
<g id="SVGRepo_tracerCarrier" stroke-linecap="round" stroke-linejoin="round"/>
<g id="SVGRepo_iconCarrier"> <g> <g> <path d="M255.999,0C122.695,0,14.245,108.45,14.245,241.754c0,133.305,108.45,241.756,241.754,241.756 c11.14,0,22.306-0.776,33.287-2.287C300.108,499.619,320.102,512,342.944,512c34.307,0,62.217-27.911,62.217-62.217l-0.237-99.567 c0-55.273-44.968-100.242-100.241-100.242s-100.242,44.969-100.242,100.242v27.614c0,5.22,4.23,9.451,9.451,9.451h28.525 c11.706,0,16.552,0,26.264-0.349c0.008,0,0.015,0,0.023,0c0.503,0,2.438,0.568,5.139,3.175c4.253,4.102,6.885,9.783,6.885,12.694 v46.982c0,4.563,0.508,9.008,1.444,13.295c-8.659,1.011-17.422,1.532-26.17,1.532c-122.883,0-222.853-99.973-222.853-222.855 s99.97-222.854,222.852-222.854s222.854,99.971,222.854,222.853c0,41.022-11.235,81.111-32.49,115.935 c-2.719,4.454-1.313,10.271,3.143,12.99c4.453,2.719,10.271,1.313,12.99-3.143c23.067-37.789,35.258-81.286,35.258-125.781 C497.755,108.45,389.305,0,255.999,0z M233.594,368.38h-10.253v-18.163h0c0-44.852,36.489-81.341,81.341-81.341 c43.649,0,79.365,34.562,81.248,77.756c-8.237-6.31-18.526-10.072-29.68-10.072h-66.13l-19.115,0.11 c-0.132,0.001-0.266,0.005-0.398,0.011C262.111,337.089,237.783,338.272,233.594,368.38z M268.708,368.031 c-0.237,0-0.474,0.004-0.709,0.013c-6.012,0.217-10.12,0.294-15.319,0.321c2.268-10.96,9.122-12.323,18.635-12.793l18.859-0.108 h66.076c16.546,0,30.007,13.463,30.007,30.009v64.311c0,23.885-19.432,43.316-43.316,43.316s-43.317-19.432-43.317-43.316v-46.982 c0-8.555-4.971-18.877-12.664-26.298C281.205,370.949,274.909,368.031,268.708,368.031z"/> </g> </g> <g> <g> <path d="M249.942,192.26l-17.969-17.969l17.969-17.969c3.688-3.691,3.688-9.674-0.003-13.366c-3.692-3.689-9.675-3.689-13.366,0 l-17.969,17.969l-17.969-17.969c-3.692-3.689-9.675-3.689-13.366,0c-3.691,3.692-3.691,9.675,0,13.366l17.969,17.969 l-17.969,17.969c-3.691,3.692-3.691,9.675,0,13.366c1.846,1.845,4.265,2.767,6.683,2.767s4.837-0.922,6.683-2.767l17.969-17.969 l17.969,17.969c1.846,1.845,4.265,2.767,6.683,2.767s4.837-0.922,6.683-2.767C253.633,201.934,253.633,195.951,249.942,192.26z"/> </g> </g> <g> <g> <path d="M428.87,192.26l-17.969-17.969l17.969-17.969c3.691-3.692,3.691-9.675,0-13.366c-3.692-3.69-9.675-3.69-13.366,0 l-17.969,17.969l-17.969-17.969c-3.692-3.69-9.675-3.69-13.366,0c-3.691,3.692-3.691,9.675,0,13.366l17.969,17.969l-17.969,17.969 c-3.691,3.692-3.691,9.675,0,13.366c1.846,1.845,4.265,2.767,6.683,2.767c2.418,0,4.837-0.922,6.683-2.767l17.969-17.969 l17.969,17.969c1.846,1.845,4.265,2.767,6.683,2.767c2.418,0,4.837-0.922,6.683-2.767 C432.56,201.935,432.56,195.952,428.87,192.26z"/> </g> </g> <g> <g> <circle cx="434.472" cy="389.676" r="9.451"/> </g> </g> </g>
</svg>