<?xml version="1.0" encoding="UTF-8"?>
<svg id="Layer_1" xmlns="http://www.w3.org/2000/svg" version="1.1" viewBox="0 0 239.7 30">
  <!-- Generator: Adobe Illustrator 29.4.0, SVG Export Plug-In . SVG Version: 2.1.0 Build 152)  -->
  <defs>
    <style>
      .st0 {
        fill: #c9a32d;
      }

      .st1 {
        fill: #231f20;
      }
    </style>
  </defs>
  <g>
    <path class="st0" d="M29,12.1c0-.5.1-.9.1-1.4,0-4.1-3.3-7.4-7.3-7.4-1.4-1.9-3.6-3.1-6-3.1s-4.6,1.1-6,3.1c-4.1,0-7.3,3.4-7.3,7.4s0,.8,0,1.2c-1.4,1.4-2.1,3.3-2.1,5.2,0,3,1.8,5.6,4.4,6.8.6,3.5,3.7,6.1,7.3,6.1s2.5-.3,3.6-1c1.1.6,2.4,1,3.6,1,3.6,0,6.7-2.7,7.3-6.2,2.5-1.2,4.1-3.8,4.1-6.7s-.7-3.6-1.9-5ZM25.4,22c-.4.1-.6.5-.7.9-.2,2.8-2.6,4.9-5.3,4.9s-2.1-.3-3-1c-.2-.1-.4-.2-.6-.2s-.4,0-.6.2c-.9.6-1.9,1-3,1-2.8,0-5.1-2.1-5.3-4.8,0-.4-.3-.8-.7-.9-2.2-.7-3.6-2.8-3.6-5.1s.7-3,1.9-4.1c.3-.3.4-.7.3-1-.1-.4-.2-.9-.2-1.3,0-2.9,2.4-5.3,5.3-5.3s.2,0,.3,0h0c.4,0,.8-.2,1-.5,1-1.6,2.7-2.6,4.6-2.6s3.6,1,4.6,2.6c.2.3.6.5,1,.5h0c.1,0,.2,0,.3,0,2.9,0,5.3,2.4,5.3,5.3s0,1-.2,1.5c-.1.4,0,.8.3,1,1.1,1,1.7,2.4,1.7,3.9,0,2.2-1.3,4.2-3.4,5Z"/>
    <path class="st0" d="M22.9,20.3c-3.8-1.3-5.8-5.4-4.6-9.2.9-.5,1.7-1.1,2.3-1.9.3-.5.2-1.1-.2-1.5-.5-.3-1.1-.2-1.5.2-1.5,2.1-4.4,2.5-6.5,1-.5-.3-1.1-.2-1.5.2-.3.5-.2,1.1.2,1.5,1.2.9,2.6,1.3,4,1.3s.5,0,.8,0c-.1.9-.2,1.9,0,2.8-1.6-1.4-3.6-2.4-5.7-2.6-.6,0-1.1.3-1.2.9,0,.6.3,1.1.9,1.2,2.3.3,4.3,1.5,5.7,3.3,1.4,1.8,2,4.1,1.7,6.4,0,.6.3,1.1.9,1.2,0,0,0,0,.1,0,.5,0,1-.4,1-.9.2-1.2.1-2.3-.1-3.5.8.7,1.8,1.3,2.9,1.6.1,0,.2,0,.3,0,.4,0,.8-.3,1-.7.2-.5,0-1.1-.6-1.3Z"/>
    <path class="st0" d="M14.3,8.7c0,0,.2,0,.3,0,.4-.2.6-.6.5-1-.5-1.3,0-2.6,0-2.6.2-.4,0-.9-.4-1-.4-.2-.9,0-1,.4,0,0-.7,1.9,0,3.8.1.3.4.5.7.5Z"/>
    <path class="st0" d="M16.6,8.7c0,0,.2,0,.3,0,.4-.2.6-.6.5-1-.5-1.3,0-2.6,0-2.6.2-.4,0-.9-.4-1-.4-.2-.9,0-1,.4,0,0-.7,1.9,0,3.8.1.3.4.5.7.5Z"/>
    <path class="st0" d="M20.4,13.8c.2.2.4.3.6.3s.4,0,.5-.2c1.3-1.2,3-1.2,3-1.2.4,0,.8-.3.8-.8,0-.4-.3-.8-.8-.8,0,0-2.3,0-4.1,1.6-.3.3-.3.8,0,1.1Z"/>
    <path class="st0" d="M25.5,13.7c0,0-2.3,0-4.1,1.6-.3.3-.3.8,0,1.1.2.2.4.3.6.3s.4,0,.5-.2c1.3-1.2,3-1.2,3-1.2h0c.4,0,.8-.3.8-.8,0-.4-.3-.8-.8-.8Z"/>
    <path class="st0" d="M13.3,19.9c-2,1.8-4.7,1.8-4.7,1.8h0c-.4,0-.8.3-.8.8,0,.4.3.8.8.8h0c.3,0,3.4,0,5.8-2.2.3-.3.3-.8,0-1.1-.3-.3-.8-.3-1.1,0Z"/>
    <path class="st0" d="M12.9,16.1c-.3-.3-.8-.3-1.1,0-2,1.8-4.7,1.8-4.7,1.8h0c-.4,0-.8.3-.8.8,0,.4.3.8.8.8h0c.3,0,3.4,0,5.8-2.2.3-.3.3-.8,0-1.1Z"/>
  </g>
  <g>
    <path class="st1" d="M55.3,16c0,5.5-4.6,8.8-9.7,8.8s-9.7-3.3-9.7-8.8,4.6-8.8,9.7-8.8,9.7,3.3,9.7,8.8ZM48.7,15.2c-.9-3.4-2.3-5-4.4-4.5-2.1.5-2.6,2.7-1.7,6.1.9,3.4,2.3,5,4.4,4.5,2.1-.5,2.6-2.7,1.7-6.1Z"/>
    <path class="st1" d="M71.1,18.3c0,2.2-1.2,4-3.1,5.1-.8.5-1.7.8-2.6,1-.8.2-1.6.3-2.4.3-.5,0-.9,0-1.4,0-1.3-.2-2.6-.6-3.9-.9-.3,0-.6-.2-.8-.4-.1-.2-.2-.4-.2-.5-.1-.5-.3-.9-.4-1.4-.3-.9-.8-2.3.6-2.3,2.1,0,1.7,3.4,5.8,3.4s2.9-1.1,2.9-2.1c0-3.1-9.6-.9-9.6-7.3s3-5.9,7.5-5.9,2.5.3,3.8.1c.5,0,1.1-.2,1.5,0,.5.3.8,1.1,1,1.7.3,1,.9,3.7-.9,3.7s-.9-3.7-4.7-3.7-2.7.8-2.7,1.8c0,3.4,9.6,1.4,9.6,7.5Z"/>
    <path class="st1" d="M87.2,22.5c-.7.7-1.6,1.3-2.5,1.7-1,.4-2.1.6-3.2.6-1.9,0-3.8-.4-5.4-1.4-1.3-.7-2.4-1.7-3.2-2.9-.9-1.3-1.3-2.8-1.3-4.4,0-1.8.7-3.7,1.8-5.1,1-1.2,2.2-2.1,3.6-2.8,1.4-.6,2.9-1,4.5-1s1.3,0,1.9.2c.6.1,1.2.4,1.8.4.5,0,1.1-.1,1.6,0,.5.1.9.6,1.2,1.3.2.5.3,1.1.4,1.8,0,.3,0,.6,0,.9,0,.5,0,.9-.4,1.3-.3.3-.7.4-1.1.4-.9,0-1.2-.7-1.6-1.5-.2-.5-.5-.9-.8-1.3-1.1-1.2-3.1-1.3-4.4-.5-1.3.8-1.8,2.4-1.9,3.8-.1,2.5.6,5.3,3.2,6.5,1.1.5,2.3.5,3.5.2.5-.2,1.2-.4,1.6-.8.4-.3.6-.7,1.2-.7s.8.2,1,.6c.4,1-.6,2-1.3,2.7Z"/>
    <path class="st1" d="M107.8,23.1c0,1.4-2,1.6-3.3,1.7-.3,0-3,0-4.1-.2-.4,0-.8-.2-1.1-.5-.3-.3-.4-1-.1-1.4.1-.2.3-.3.5-.4.3-.1.6-.3.6-.6s0-.3,0-.4c0-.3-.2-.8-.4-1.4,0-.1,0-.2-.1-.3h-4.8c-.3.9-.5,1.5-.6,1.7-.1.5,0,.9.4,1.2.3.2.7.6.7,1,0,1.4-2.5,1.3-3.2,1.3s-.7,0-.8,0c-.2,0-.5,0-.7,0-.9,0-2.5-.1-2.5-1.4s.5-.8,1-1c.4-.1.7-.3,1-.6.3-.3.5-.7.7-1.1.1-.3.2-.6.3-.9.2-.6.4-1.1.6-1.7.5-1.5,1.1-3,1.6-4.4.4-1.1.9-2,.8-3.2,0-.6-.1-1.2.2-1.8,0-.1.2-.2.3-.4.4-.5,1-.7,1.7-.7.5,0,1.1,0,1.6,0,.6,0,1.2.1,1.7.4.7.4,1.2,1.2,1.6,1.9.4.8.7,1.6,1.1,2.4,0,0,1.5,3.6,2.2,5.4.3.8.6,1.6,1,2.4.3.8.5,1.8,1.4,2.1.4.2.7.4.7.9ZM98.7,16.6c0-.2-.2-.5-.2-.7l-1.1-3c-.1.4-.7,2-1.3,3.7h2.7Z"/>
    <path class="st1" d="M124.7,24.5s-3,0-4.9,0-.9-.2-1.1-.6c0,0-3.8-5.7-3.8-5.7v3.3c0,.2,0,.4,0,.6.2.7,1.4.5,1.4,1.3,0,1.5-3,1.4-4.1,1.4s-4.5.1-4.5-1.4,1.1-.7,1.4-1.3c0-.3.2-.7.2-1.3v-9.8c0-.3,0-.6,0-.8-.2-.7-1.4-.5-1.4-1.3s.1-.5.3-.7c0,0,0,0,0,0,.8-.7,2.9-.7,3.7-.7h5.5c4.2,0,7,1.3,7,4.8s-1.9,3.6-4,4.5l1,1.6c1.6,2.5,2.4,3.4,3.3,3.7.3.1.7.3.9.6.4.7,0,1.7-.9,1.7ZM118.7,12c-.1-1.4-1.2-2.2-2.4-2.2s-.8.1-1.1.3c-.2.1-.3.5-.3.8v3.8h.7c1.9,0,3.2-.7,3.1-2.7Z"/>
    <path class="st1" d="M141.3,18.3c0,2.2-1.2,4-3.1,5.1-.8.5-1.7.8-2.6,1-.8.2-1.6.3-2.4.3-.5,0-.9,0-1.4,0-1.3-.2-2.6-.6-3.9-.9-.3,0-.6-.2-.8-.4-.1-.2-.2-.4-.2-.5-.1-.5-.3-.9-.4-1.4-.3-.9-.8-2.3.6-2.3,2.1,0,1.7,3.4,5.8,3.4s2.9-1.1,2.9-2.1c0-3.1-9.6-.9-9.6-7.3s3-5.9,7.5-5.9,2.5.3,3.8.1c.5,0,1.1-.2,1.5,0,.5.3.8,1.1,1,1.7.3,1,.9,3.7-.9,3.7s-.9-3.7-4.7-3.7-2.7.8-2.7,1.8c0,3.4,9.6,1.4,9.6,7.5Z"/>
    <path class="st1" d="M168.3,11.9v8.7c0,.4,0,1.1.1,1.5.2.7,1.4.5,1.4,1.3,0,1.5-3,1.4-4.1,1.4s-4.5.1-4.5-1.4,1.1-.7,1.4-1.3c0-.2.1-.5.1-.8v-6.6l-3.5,7.6c-.2.5-.7.9-1.3.9s-1.1-.3-1.3-.9l-3.5-8.2v7.2c0,.2,0,.3,0,.4,0,0,0,0,0,0,0,0,0,0,0,.1.5.6,1.6.2,1.6,1.3s-2.6,1.4-3.5,1.4c-3.4,0-3.7-.6-3.7-1.4,0-1.1,1.3-.8,2-1.6.1-.2.2-.4.2-.7v-10.3c0-.2,0-.3,0-.4-.2-.6-1.2-.5-1.4-1.2-.2-.7.6-1.1,1.1-1.3,1.1-.4,2.4-.4,3.5-.3,1.1,0,2.6,0,3.2,1.2.1.2,3,6,2.9,6.1.2-.4,2.7-5.7,3.1-6.1.5-.6,1.3-.9,2.1-1.1,1-.1,2-.1,3,0,.8,0,2.9.1,2.5,1.5-.2.7-1.1.9-1.4,1.4-.2.4-.2,1-.2,1.5Z"/>
    <path class="st1" d="M189.3,23.1c0,1.4-2,1.6-3.3,1.7-.3,0-3,0-4.1-.2-.4,0-.8-.2-1.1-.5-.3-.3-.4-1-.1-1.4.1-.2.3-.3.5-.4.3-.1.6-.3.6-.6s0-.3,0-.4c0-.3-.2-.8-.4-1.4,0-.1,0-.2-.1-.3h-4.8c-.3.9-.5,1.5-.6,1.7-.1.5,0,.9.4,1.2.3.2.7.6.7,1,0,1.4-2.5,1.3-3.2,1.3s-.7,0-.8,0c-.2,0-.5,0-.7,0-.9,0-2.5-.1-2.5-1.4s.5-.8,1-1c.4-.1.7-.3,1-.6.3-.3.5-.7.7-1.1.1-.3.2-.6.3-.9.2-.6.4-1.1.6-1.7.5-1.5,1.1-3,1.6-4.4.4-1.1.9-2,.8-3.2,0-.6-.1-1.2.2-1.8,0-.1.2-.2.3-.4.4-.5,1-.7,1.7-.7.5,0,1.1,0,1.6,0,.6,0,1.2.1,1.7.4.7.4,1.2,1.2,1.6,1.9.4.8.7,1.6,1.1,2.4,0,0,1.5,3.6,2.2,5.4.3.8.6,1.6,1,2.4.3.8.5,1.8,1.4,2.1.4.2.7.4.7.9ZM180.2,16.6c0-.2-.2-.5-.2-.7l-1.1-3c-.1.4-.7,2-1.3,3.7h2.7Z"/>
    <path class="st1" d="M204.4,8.8c.1.5.2,1.1.2,1.6,0,.8-.3,1.7-1.3,1.7s-1.1-.8-1.7-1.4c-.5-.5-1.2-.9-1.8-1-.9-.1-1.3.6-1.2,1.5,0,.3,0,2.6,0,3.2v.3s0,3.3,0,3.3v2.5c0,.4,0,1.1.1,1.5.2.7,1.4.5,1.4,1.3s-.2.7-.5.9c0,0-.1,0-.2.1-1,.4-2.6.4-3.3.4-1.1,0-4.5.1-4.5-1.4s1.1-.7,1.4-1.3c0-.3.2-.7.2-1.3v-4.9c0-.4,0-.9,0-1.3,0-1.1,0-2.2,0-3.2,0-.8-.3-1.6-1.2-1.5-.7,0-1.4.5-1.8,1-.6.6-.7,1.4-1.7,1.4s-1.3-.9-1.3-1.7,0-1.1.2-1.7c.2-.6.4-1,1-1.2.5-.1,1-.1,1.5-.1h11.1c.5,0,1,0,1.5,0,.5,0,1,0,1.4.3,0,0,.2.1.2.2.2.2.3.5.3.8Z"/>
    <path class="st1" d="M204.6,8.9c0-1.5,2.4-1.4,3.4-1.4.8,0,8.6,0,9.3,0,0,0,1.3,0,1.7.2.4.2.6.7.7,1.1.2.5.3,1.1.3,1.6,0,.8-.3,1.7-1.3,1.7s-1.1-.8-1.7-1.4c-.5-.5-1.1-.7-1.7-.8-.7-.1-2.3-.5-2.9,0-.4.3-.3,1-.3,1.4v2.8s.7,0,.8,0c.3,0,.6,0,.8-.3.3-.4.3-1,.4-1.4,0-.2.1-.5.3-.6.2-.2.4-.3.7-.3,1.4,0,1.5,2.7,1.5,3.6s-.2,3.8-1.6,3.8-.3,0-.4,0c-.5-.2-.4-.9-.5-1.3,0-.3-.2-.5-.4-.7-.3-.3-.8-.3-1.2-.3h-.4v3.5c0,.5,0,1.6.4,1.9.7.5,2.4,0,3.2-.2.7-.2,1.2-.6,1.6-1.2.5-.7.7-1.9,1.8-1.9s1.1.8,1.1,1.5c0,.9-.2,1.8-.5,2.6-.3.7-.6,1.9-1.4,1.9-.3,0-.8,0-.8,0h-9.3c-1.3,0-3.4,0-3.4-1.3s.8-1.1,1.1-1.6c.3-.3.5-1.2.5-4.5v-2.7c0-3-.2-3.7-.5-4-.5-.7-1.5-.7-1.5-1.5Z"/>
    <path class="st1" d="M236.1,18.3c0,2.2-1.2,4-3.1,5.1-.8.5-1.7.8-2.6,1-.8.2-1.6.3-2.4.3-.5,0-.9,0-1.4,0-1.3-.2-2.6-.6-3.9-.9-.3,0-.6-.2-.8-.4-.1-.2-.2-.4-.2-.5-.1-.5-.3-.9-.4-1.4-.3-.9-.8-2.3.6-2.3,2.1,0,1.7,3.4,5.8,3.4s2.9-1.1,2.9-2.1c0-3.1-9.6-.9-9.6-7.3s3-5.9,7.5-5.9,2.5.3,3.8.1c.5,0,1.1-.2,1.5,0,.5.3.8,1.1,1,1.7.3,1,.9,3.7-.9,3.7s-.9-3.7-4.7-3.7-2.7.8-2.7,1.8c0,3.4,9.6,1.4,9.6,7.5Z"/>
  </g>
</svg>