<?xml version="1.0" encoding="UTF-8"?>
<svg id="Layer_1" xmlns="http://www.w3.org/2000/svg" version="1.1" viewBox="0 0 179.4 267">
  <!-- Generator: Adobe Illustrator 29.4.0, SVG Export Plug-In . SVG Version: 2.1.0 Build 152)  -->
  <defs>
    <style>
      .st0 {
        fill: #c9a32d;
      }

      .st1 {
        fill: #fff;
      }
    </style>
  </defs>
  <path class="st1" d="M121.9,94.5c0-4.2-1.8-8-4.6-10.7.4-1.3.6-2.6.6-4,0-8.1-6.6-14.7-14.7-14.7s-.7,0-1,0c-2.6-4.3-7.3-7.1-12.6-7.1s-10,2.9-12.6,7.1c-.3,0-.7,0-1,0-8.1,0-14.7,6.6-14.7,14.7s.2,2.4.5,3.6c-3.1,2.7-5.2,6.7-5.2,11.2,0,6.5,4.2,12,10,13.9.7,7.5,7,13.3,14.7,13.3s6-1,8.4-2.6c2.4,1.7,5.3,2.6,8.4,2.6,7.7,0,14.1-6,14.7-13.6,5.5-2.1,9.4-7.5,9.4-13.7Z"/>
  <g>
    <path class="st0" d="M175.1,119.5c-5.5,0-10,4.5-10,10v10.8c0,.6-.5,1.1-1.1,1.1-1.2,0-2.1-1-2.1-2.1v-28.8c0-2.3-2.1-4.1-4.4-3.5-4.2,1-7,5-7,9.8v23.6c0,.6-.5,1.1-1.1,1.1-1.2,0-2.1-1-2.1-2.1v-41.7c0-2.3-2.1-4.1-4.4-3.5-4.2,1-7,5-7,9.8v36.4c0,.6-.5,1.1-1.1,1.1h0c-1.2,0-2.1-1-2.1-2.1v-28.1c0-2.7-2.8-4.4-5.2-3.2-3.4,1.7-6.1,5-6.1,8.8v24s0,.9,0,.9c0,2.1-1.2,4.2-3.2,5-3.1,1.3-7.1,0-8.4-3.7l-1.5-4.1c-2.2-5.9-9.3-8.6-14.9-5l8.3,27.8c2.9,9.6,11.7,16.2,21.8,16.2h34.6c19.4,0,19.4-27.1,19.4-27.1v-29.1c0-1.3-1-2.3-2.3-2.3Z"/>
    <path class="st0" d="M75.2,136.6h-36.4c-.6,0-1.1-.5-1.1-1.1,0-1.2,1-2.1,2.1-2.1h28.1c2.7,0,4.4-2.8,3.2-5.2-1.7-3.4-5-6.1-8.8-6.1h-24s-.9,0-.9,0c-2.1,0-4.2-1.2-5-3.2-1.3-3.1,0-7.1,3.7-8.4l4.1-1.5c5.9-2.2,8.6-9.3,5-14.9l-27.8,8.3c-9.6,2.9-16.2,11.7-16.2,21.8v34.6c0,19.4,27.1,19.4,27.1,19.4,13.5,0,29.1,0,29.1,0,1.3,0,2.3-1,2.3-2.3,0-5.5-4.5-10-10-10h-10.8c-.6,0-1.1-.5-1.1-1.1,0-1.2,1-2.1,2.1-2.1h28.8c2.3,0,4.1-2.1,3.5-4.4-1-4.2-5-7-9.8-7h-23.6c-.6,0-1.1-.5-1.1-1.1,0-1.2,1-2.1,2.1-2.1h41.7c2.3,0,4.1-2.1,3.5-4.4-1-4.2-5-7-9.8-7Z"/>
    <path class="st0" d="M3.3,60.3c5.5,0,10-4.5,10-10v-10.8c0-.6.5-1.1,1.1-1.1,1.2,0,2.1,1,2.1,2.1v28.8c0,2.3,2.1,4.1,4.4,3.5,4.2-1,7-5,7-9.8v-23.6c0-.6.5-1.1,1.1-1.1,1.2,0,2.1,1,2.1,2.1v41.7c0,2.3,2.1,4.1,4.4,3.5,4.2-1,7-5,7-9.8v-36.4c0-.6.5-1.1,1.1-1.1,1.2,0,2.1,1,2.1,2.1v28.1c0,2.7,2.8,4.4,5.2,3.2,3.4-1.7,6.1-5,6.1-8.8v-24s0-.9,0-.9c0-2.1,1.2-4.2,3.2-5,3.1-1.3,7.1,0,8.4,3.7l1.5,4.1c2.2,5.9,9.3,8.6,14.9,5l-8.3-27.8c-2.9-9.6-11.7-16.2-21.8-16.2H20.4C1,1.7,1,28.8,1,28.8v29.1c0,1.3,1,2.3,2.3,2.3Z"/>
    <path class="st0" d="M150.2,1.7h-29.1c-1.3,0-2.3,1-2.3,2.3,0,5.5,4.5,10,10,10h10.8c.6,0,1.1.5,1.1,1.1,0,1.2-1,2.1-2.1,2.1h-28.8c-2.3,0-4.1,2.1-3.5,4.4,1,4.2,5,7,9.8,7h23.6c.6,0,1.1.5,1.1,1.1,0,1.2-1,2.1-2.1,2.1h-41.7c-2.3,0-4.1,2.1-3.5,4.4,1,4.2,5,7,9.8,7h36.4c.6,0,1.1.5,1.1,1.1h0c0,1.2-1,2.1-2.1,2.1h-28.1c-2.7,0-4.4,2.8-3.2,5.2,1.7,3.4,5,6.1,8.8,6.1h24s.9,0,.9,0c2.1,0,4.2,1.2,5,3.2,1.3,3.1,0,7.1-3.7,8.4l-4.1,1.5c-5.9,2.2-8.6,9.3-5,14.9l27.8-8.3c9.6-2.9,16.2-11.7,16.2-21.8V21.1c0-19.4-27.1-19.4-27.1-19.4Z"/>
    <path class="st0" d="M114.4,109.6c5.8-2.8,9.5-8.6,9.5-15.1s-1.6-8.2-4.4-11.3c.2-1.1.4-2.3.4-3.4,0-9.2-7.5-16.7-16.7-16.7-3.1-4.5-8.2-7.1-13.7-7.1s-10.5,2.6-13.7,7.1c-9.2,0-16.7,7.5-16.7,16.7s0,1.9.3,2.9c-3.2,3.1-5,7.4-5,11.9,0,6.7,4,12.8,10.2,15.4,1.4,8,8.2,13.9,16.5,13.9s5.8-.8,8.4-2.3c2.5,1.5,5.4,2.3,8.4,2.3,8.3,0,15.3-6.1,16.5-14.2ZM89.5,117.2c-.4,0-.8.1-1.1.4-2.1,1.5-4.7,2.3-7.3,2.3-6.6,0-12.1-5-12.7-11.5,0-.8-.6-1.5-1.3-1.7-5.2-1.8-8.7-6.6-8.7-12.1s1.6-7.2,4.5-9.7c.6-.5.8-1.3.6-2-.3-1-.4-2.1-.4-3.1,0-7,5.7-12.7,12.7-12.7s.5,0,.7,0h.1c.7,0,1.5-.3,1.9-.9,2.3-3.9,6.4-6.2,10.9-6.2s8.6,2.3,10.9,6.2c.4.6,1.1,1,1.9,1h.1c.2,0,.5,0,.7,0,7,0,12.7,5.7,12.7,12.7s-.2,2.3-.5,3.5c-.2.7,0,1.5.6,2,2.6,2.4,4,5.7,4,9.3,0,5.3-3.2,9.9-8.1,11.9-.7.3-1.2.9-1.3,1.7-.5,6.6-6.1,11.7-12.7,11.7s-5.1-.8-7.3-2.3c-.3-.2-.7-.4-1.1-.4Z"/>
    <path class="st0" d="M97.5,86c-2-.7-3.6-2.3-4.4-4.4l-3.9-10.6-3.9,10.6c-.7,2-2.3,3.6-4.4,4.4l-10.6,3.9,10.6,3.9c2,.7,3.6,2.3,4.4,4.4l3.9,10.6,3.9-10.6c.7-2,2.3-3.6,4.4-4.4l10.6-3.9-10.6-3.9Z"/>
  </g>
  <g>
    <path class="st1" d="M19.3,228.4c8.1,0,15.5-5.3,15.5-14.1s-7.4-14.1-15.5-14.1-15.5,5.3-15.5,14.1,7.4,14.1,15.5,14.1ZM17.1,205.8c3.4-.9,5.7,1.7,7.1,7.2,1.4,5.5.6,8.9-2.7,9.8-3.4.9-5.7-1.7-7.1-7.2-1.4-5.5-.6-8.9,2.7-9.8Z"/>
    <path class="st1" d="M46.5,224.8c-6.6,0-5.9-5.5-9.3-5.5s-1.3,2.3-.9,3.7c.2.8.4,1.5.7,2.3,0,.3.2.6.4.9.3.4.8.5,1.3.6,2.1.5,4.1,1.1,6.2,1.4.7,0,1.5.1,2.2.1,1.3,0,2.6-.1,3.9-.4,1.5-.3,2.9-.9,4.2-1.6,3-1.8,5-4.7,5-8.3,0-9.7-15.4-6.5-15.4-12s1.4-2.9,4.3-2.9c6,0,4.7,5.9,7.5,5.9s1.9-4.3,1.4-5.9c-.3-.9-.7-2.2-1.6-2.7-.7-.4-1.6-.3-2.5-.1-2,.3-4-.2-6.1-.2-7.1,0-12,4-12,9.5,0,10.3,15.4,6.7,15.4,11.8s-1.6,3.4-4.7,3.4Z"/>
    <path class="st1" d="M68.1,226.3c2.6,1.5,5.7,2.2,8.7,2.2,1.8,0,3.6-.3,5.2-1,1.5-.6,2.9-1.5,4.1-2.7,1.1-1.1,2.7-2.7,2-4.3-.2-.6-.7-.9-1.6-.9s-1.3.6-1.9,1.1c-.7.6-1.7,1-2.5,1.2-1.8.5-3.9.4-5.6-.4-4.1-1.8-5.2-6.3-5.1-10.4,0-2.3.9-4.9,3-6.2,2.1-1.3,5.4-1,7.1.9.6.6.9,1.4,1.3,2.1.6,1.2,1.2,2.4,2.6,2.4s1.3-.2,1.7-.6c.6-.5.6-1.3.6-2,0-.5,0-1,0-1.5,0-1.1-.3-2-.6-2.9-.4-1.2-1-1.9-1.9-2.1-.8-.2-1.7,0-2.5,0-1,0-1.9-.5-2.9-.7-1-.2-2.1-.3-3.1-.3-2.5,0-5,.6-7.2,1.6-2.2,1-4.2,2.5-5.8,4.4-1.8,2.3-3,5.3-3,8.3,0,2.5.7,4.9,2.1,7.1,1.3,2,3.1,3.6,5.1,4.7Z"/>
    <path class="st1" d="M92.1,228.4c.4,0,.7,0,1.1,0,0,0,1,0,1.2,0,1.1,0,5.1.1,5.1-2.1s-.6-1.2-1.1-1.6c-.6-.5-.9-1.1-.7-1.9,0-.3.4-1.3.9-2.7h7.8c0,.2.1.4.2.5.3.9.5,1.7.6,2.2,0,.2,0,.4,0,.7,0,.6-.5.8-.9,1-.3.1-.6.3-.8.6-.5.6-.3,1.7.2,2.2.5.5,1.2.7,1.8.8,1.7.3,6.1.3,6.6.3,1.9,0,4.8-.3,5.2-2.2.3,2.3,5.6,2.1,7.3,2.1s6.5.2,6.5-2.2c0-1.3-1.8-1.1-2.2-2.1,0-.2-.1-.6-.1-.9v-5.3s6.1,9.2,6.1,9.2c.4.6,1,1,1.7,1,3.1,0,7.9,0,7.9,0,1.4,0,2.1-1.7,1.4-2.8-.3-.5-.9-.8-1.4-1-1.4-.5-2.6-2-5.3-6l-1.7-2.6c3.5-1.6,6.5-4,6.5-7.3,0-5.7-4.6-7.7-11.3-7.7h-8.9c-1.4,0-4.7,0-6,1.1,0,0,0,0,0,0-.3.3-.5.6-.5,1.1,0,1.3,1.8,1.1,2.2,2.1.1.3.1.8.2,1.3v15.7c0,.9-.1,1.6-.3,2.1-.3.8-1.8,1-2.1,1.8,0-.8-.5-1.1-1.1-1.4-1.4-.5-1.8-2.1-2.3-3.4-.5-1.3-1-2.6-1.6-3.9-1.2-2.9-3.5-8.8-3.5-8.8-.5-1.3-1-2.6-1.7-3.9-.6-1.2-1.5-2.4-2.6-3.1-.9-.5-1.8-.6-2.8-.7-.9,0-1.7,0-2.6,0-1,.1-2,.5-2.7,1.2-.2.2-.3.4-.4.6-.5.9-.4,1.9-.3,2.9.2,1.9-.7,3.5-1.4,5.2-.9,2.4-1.8,4.7-2.6,7.1-.3.9-.6,1.8-1,2.7-.2.5-.3.9-.5,1.4-.2.7-.6,1.3-1.1,1.8-.4.5-1,.8-1.6,1-.8.3-1.5.6-1.5,1.6,0,2,2.6,2.1,4.1,2.2ZM130.9,206.1c0-.5,0-1,.4-1.3.5-.3,1.1-.5,1.8-.5,1.8,0,3.6,1.2,3.8,3.5.2,3.2-1.9,4.3-4.9,4.3h-1.1v-6.1ZM102.5,209.4l1.8,4.9c.1.4.3.7.4,1.1h-4.4c1-2.8,1.9-5.4,2.1-6Z"/>
    <path class="st1" d="M159.6,224.8c-6.6,0-5.9-5.5-9.3-5.5s-1.3,2.3-.9,3.7c.2.8.4,1.5.7,2.3,0,.3.2.6.4.9.3.4.8.5,1.3.6,2.1.5,4.1,1.1,6.2,1.4.7,0,1.5.1,2.2.1,1.3,0,2.6-.1,3.9-.4,1.5-.3,2.9-.9,4.2-1.6,3-1.8,5-4.7,5-8.3,0-9.7-15.4-6.5-15.4-12h0c0-1.6,1.4-2.9,4.3-2.9,6,0,4.7,5.9,7.5,5.9s1.9-4.3,1.4-5.9c-.3-.9-.7-2.2-1.6-2.7-.7-.4-1.6-.3-2.5-.1-2,.3-4-.2-6.1-.2-7.1,0-12,4-12,9.5,0,10.3,15.4,6.7,15.4,11.8s-1.6,3.4-4.7,3.4Z"/>
    <path class="st1" d="M43.9,261.8c-.2-.7-.2-2.1-.2-2.8v-4.8s0-12.1,0-12.1c0-.8,0-2.1.4-2.8.6-1.1,2.4-1.5,2.7-2.8.6-2.6-3.3-2.7-4.9-2.8-1.9,0-3.9-.2-5.8.1-1.5.2-3,.8-4,2-.6.8-5.6,11.1-5.9,11.8,0-.2-5.5-11.4-5.7-11.7-1.2-2.2-4-2.2-6.2-2.3-2.3-.1-4.6,0-6.9.6-1,.3-2.6,1.2-2.2,2.5.4,1.3,2.2,1.1,2.6,2.3,0,.2.1.5.1.8v20c0,.6,0,1.1-.3,1.4-1.3,1.7-3.8,1-3.8,3.2s.6,2.7,7.2,2.7,6.8,0,6.8-2.8-2.1-1.4-3.1-2.6c0,0,0-.1-.1-.2,0,0,0,0,0-.2,0-.2-.1-.5-.1-.8v-14l6.8,15.9c.4,1,1.4,1.7,2.5,1.7s2.1-.7,2.5-1.8l6.9-14.8v12.8c0,.6-.1,1.1-.3,1.5-.4,1.1-2.6,1.2-2.6,2.5,0,3,6.7,2.8,8.8,2.8s7.9.2,7.9-2.6-2.2-1.3-2.7-2.6Z"/>
    <path class="st1" d="M83,262c-1.7-.7-2.2-2.5-2.8-4.1-.6-1.6-1.2-3.2-1.9-4.7-1.4-3.5-4.3-10.5-4.3-10.5-.6-1.6-1.3-3.2-2-4.7-.8-1.4-1.7-2.9-3.2-3.7-1-.6-2.2-.8-3.4-.8-1,0-2.1,0-3.1,0-1.2.2-2.4.6-3.2,1.4-.2.2-.4.4-.5.7-.6,1.1-.5,2.3-.4,3.5.2,2.3-.8,4.2-1.6,6.2-1.1,2.9-2.1,5.7-3.2,8.6-.4,1.1-.8,2.2-1.2,3.2-.2.6-.4,1.1-.6,1.7-.3.8-.7,1.6-1.3,2.2-.5.6-1.2.9-2,1.2-1,.4-1.9.8-1.9,1.9,0,2.4,3.1,2.5,4.9,2.6.4,0,.9,0,1.3,0,.1,0,1.2,0,1.5,0,1.3,0,6.2.1,6.2-2.5s-.7-1.5-1.4-2c-.8-.6-1.1-1.3-.9-2.2,0-.3.5-1.6,1.1-3.3h9.3c0,.2.2.4.2.6.3,1.1.6,2,.7,2.7,0,.2.1.5.1.8,0,.7-.6,1-1.1,1.2-.4.2-.7.4-1,.7-.6.7-.3,2,.3,2.6.6.6,1.4.8,2.2,1,2.1.4,7.3.3,7.9.3,2.5,0,6.3-.4,6.3-3.2,0-.9-.6-1.4-1.4-1.7ZM61.5,251.3c1.2-3.3,2.3-6.5,2.6-7.2l2.2,5.9c.2.4.3.9.5,1.4h-5.3Z"/>
    <path class="st1" d="M112.9,234.6c-.1-.2-.3-.3-.4-.4-.7-.6-1.7-.6-2.6-.6-1,0-1.9,0-2.9,0h-21.5c-1,0-2,0-3,.2-1.2.3-1.7,1.2-2,2.3-.3,1.1-.4,2.1-.4,3.2s.6,3.4,2.4,3.4,2.1-1.6,3.3-2.7c.9-.9,2.3-1.7,3.6-1.8,1.8-.2,2.5,1.2,2.4,2.8-.1,2.1,0,4.2,0,6.3s0,1.7,0,2.5v9.5c0,1-.2,1.9-.3,2.5-.4,1.1-2.6,1.2-2.6,2.5,0,3,6.7,2.8,8.8,2.8s4.5,0,6.4-.7c.2,0,.3-.1.4-.2.6-.4,1-.9,1-1.7,0-1.5-2.2-1.3-2.7-2.6-.2-.7-.2-2.1-.2-2.8v-4.8s0-6.3,0-6.3v-.6c0-1.3,0-5.7,0-6.3-.1-1.6.6-3.1,2.4-2.8,1.3.2,2.7.9,3.6,1.8,1.1,1.1,1.4,2.7,3.3,2.7s2.4-1.8,2.4-3.4-.1-2.1-.4-3.2c-.1-.5-.3-1.1-.7-1.5Z"/>
    <path class="st1" d="M142.2,255c-2.1,0-2.5,2.4-3.5,3.7-.8,1.1-1.9,1.9-3.1,2.3-1.4.5-4.7,1.3-6.2.4-1-.6-.8-2.7-.8-3.7v-16.7c0-.8-.1-2.1.6-2.7,1.1-.9,4.3-.2,5.6,0,1.2.2,2.4.6,3.3,1.6,1.1,1.1,1.4,2.7,3.3,2.7s2.4-1.8,2.4-3.4-.2-2.2-.5-3.2c-.3-.8-.5-1.8-1.3-2.2-.9-.4-3.4-.3-3.4-.3-1.3,0-16.6,0-18,0-1.9,0-6.6-.2-6.6,2.8,0,1.7,1.8,1.7,2.8,3,.5.6,1,2,1,7.8v5.2c0,6.4-.5,8.1-1,8.7-.7.9-2.2,1.6-2.2,3.1,0,2.5,4.1,2.4,6.6,2.4h18s1,0,1.5,0c1.6,0,2.2-2.3,2.7-3.6.6-1.5,1.1-3.3,1-5,0-1.3-.6-2.9-2.2-2.9Z"/>
    <path class="st1" d="M156.5,240.1c0-1.9,1.7-3.5,5.2-3.5,7.3,0,5.7,7.1,9,7.1s2.3-5.2,1.7-7.1c-.3-1.1-.9-2.6-1.9-3.2-.9-.5-2-.3-3-.2-2.4.3-4.9-.2-7.3-.2-8.6,0-14.4,4.8-14.4,11.4,0,12.4,18.5,8.1,18.5,14.2s-2,4.1-5.7,4.1c-8,0-7.1-6.6-11.2-6.6s-1.6,2.8-1.1,4.5c.3.9.5,1.8.8,2.7.1.4.2.8.5,1.1.4.5,1,.6,1.6.8,2.5.6,4.9,1.4,7.5,1.7.9.1,1.8.2,2.7.2,1.6,0,3.2-.2,4.7-.5,1.8-.4,3.5-1.1,5.1-2,3.6-2.1,6-5.7,6-9.9,0-11.7-18.5-7.8-18.5-14.4Z"/>
    <path class="st1" d="M134.1,245.4v-.3c-.1,0-.2.3-.2.3-.7,2-2.3,3.6-4.4,4.4h-.3c0,.1.3.2.3.2,2,.7,3.6,2.3,4.4,4.4v.3c.1,0,.2-.3.2-.3.7-2,2.3-3.6,4.4-4.4h.3c0-.1-.3-.2-.3-.2-2-.7-3.6-2.3-4.4-4.4Z"/>
  </g>
</svg>