<?xml version="1.0" encoding="UTF-8"?>
<svg id="Layer_1" xmlns="http://www.w3.org/2000/svg" version="1.1" viewBox="0 0 600 330">
  <!-- Generator: Adobe Illustrator 29.4.0, SVG Export Plug-In . SVG Version: 2.1.0 Build 152)  -->
  <defs>
    <style>
      .st0 {
        fill: #c9a32d;
      }

      .st1 {
        fill: #6d5723;
      }

      .st2 {
        fill: #fff;
      }

      .st3 {
        fill: #6e5823;
      }
    </style>
  </defs>
  <g id="bubble">
    <path class="st2" d="M581.7,139.8c-1.4-1.4-1.9-3.5-1.5-5.4,1.1-4.7,1.7-9.6,1.7-14.6,0-36-29.2-65.2-65.2-65.2s-.9,0-1.3,0c-2,0-3.8-.9-4.9-2.5-11.7-17.4-31.5-28.9-54.1-28.9s-40.6,10.5-52.4,26.6l-8.6,1.2c-12.1-9.2-27.1-14.7-43.5-14.7s-1.1,0-1.7,0c-2,0-3.9-.9-5.1-2.6-12.8-19.2-34.7-31.9-59.5-31.9s-44.4,11.4-57.5,29c-1.8,2.4-5,3-7.6,1.5-9.8-5.9-21.2-9.2-33.4-9.2-22.5,0-42.3,11.5-54.1,28.9-1.1,1.6-3,2.6-4.9,2.5s-.9,0-1.3,0c-36,0-65.2,29.2-65.2,65.2s.5,8.5,1.3,12.6-.2,3.9-1.7,5.3c-12.5,11.9-20.4,28.7-20.4,47.3s6.1,31.5,16.2,43c1.2,1.4,1.7,3.3,1.3,5.1-6,25.1-27,44-55.4,59.9s-3.2,10.5,2.6,10.7c36.8,1.5,67.6-4.2,92.1-17.6,2.2-1.2,4.9-.9,6.7.9,11.8,11.6,27.9,18.8,45.8,18.8s24.2-3.5,34.1-9.7,4.2-1.2,6.1,0c9.9,6.1,21.6,9.7,34.1,9.7s21.5-2.8,30.6-7.6,5.5-.7,7.2,1.6c13.1,17.2,33.7,28.4,57,28.4s45.2-11.9,58.2-30c3.1-.6,5.1-1,8.1-1.7,9.8,6,21.4,9.4,33.7,9.4s24.2-3.5,34.1-9.7,4.2-1.2,6.1,0c9.9,6.1,21.6,9.7,34.1,9.7,33.2,0,60.5-24.8,64.6-56.8.3-2,1.5-3.7,3.3-4.5,22.7-10.2,38.5-33,38.5-59.4s-7-33.5-18.3-45.2Z"/>
  </g>
  <g id="text">
    <g>
      <path class="st1" d="M129.2,143.8v4.5c0,.3,0,.6.1.8.3.9,1.9.7,1.9,1.8,0,2-4.1,1.8-5.5,1.8s-6.2.1-6.2-2,1.5-1,1.8-1.7c.1-.4.2-1,.2-1.7v-13.2c0-.4,0-.8-.1-1.1-.3-.9-1.9-.7-1.9-1.8s.1-.7.4-.9c0,0,0,0,0,0,1.1-1,3.9-.9,5-.9h7.5c5.7,0,9.5,1.7,9.5,6.5s-4.8,7.3-12.9,8ZM130,139.1c2.5,0,4.3-.9,4.1-3.6-.2-1.9-1.7-3-3.2-3s-1.1.2-1.5.4c-.3.2-.3.7-.3,1.1v5.1h.9Z"/>
      <path class="st1" d="M153.3,150.6c0,.7-.5,1.2-1.1,1.5,0,0,0,0,0,0-1.3.5-3.2.5-4,.5-1.4,0-5.9.2-5.9-2.1s1.5-1,1.7-1.9c.1-.4.2-1.1.2-1.8v-12.3c0-1.8-1.9-1.1-1.9-2.6s1-1.4,2.3-1.5c1.6-.2,4.6-1,5.2-1,1,0,1.6.7,1.6,3v15.2c0,.4,0,.8.1,1,.3,1,1.8.8,1.8,2Z"/>
      <path class="st1" d="M171,147.9c.2.7,0,1.5-.6,2,0,0,0,0-.1.1,0,0,0,0,0,0,0,0,0,0,0,0-.2.2-.4.3-.6.5-.1.1-.3.2-.4.3-.1,0-.2.1-.3.2-.2.1-.4.2-.6.3-.1,0-.2,0-.3.1-.2,0-.5.2-.7.3-.1,0-.2,0-.3.1-1.3.4-2.7.7-4,.7s0,0,0,0,0,0,0,0c-4.8,0-9.6-2.7-9.6-8s0,0,0,0c0,0,0,0,0,0,0-4.9,4.5-8.5,9.6-8.5s8.4,4.2,8.4,6.6-1,2.4-2.1,2.4h-7.4c-.3,0-.5,0-.8,0,0,0,0,0,0,0h.1c-.1,0-.2,0-.2,0,0,0,0,.2,0,.2,0,.6.1,1.1.3,1.5.1.3.3.6.5.8.6.8,1.7,1.2,3,1.2s.9,0,1.4-.2c.4-.1.9-.4,1.4-.7.1,0,.3-.2.4-.3.3-.3.6-.5,1-.7.2,0,.5-.1.7-.1s.4,0,.6,0c.6.2.9.6,1.1,1.1ZM160.5,141c0,1.1,1.2.9,2.1.9s2,.2,2-1-.8-2-2-2-2.1,1.1-2.1,2.1Z"/>
      <path class="st1" d="M191.8,148.9c0,1.8-2.5,3.8-4.8,3.8s-2.6-1.6-3.4-1.6-1.3.6-1.8.8c-.6.2-1.1.4-1.7.5-1.2.2-2.5.2-3.7,0-2.4-.6-4.3-2.3-4.3-4.9s2.9-5.6,10.6-5.6c0-2.6-.6-3.1-1.9-3.1s-1.9,2.5-4.5,2.5-2.8-.8-2.8-1.9c0-1.9,2.5-3.1,8-3.1s8.1,1,8.5,5.5c0,.2,0,.7,0,.8v3c0,.3,0,.5,0,.8.3,3.5,1.9,1.2,1.9,2.7ZM182.7,144.4c0-.1-.1-.2-.2-.2-1.9,0-3.3,1.2-3.3,3.2s.6,1.9,1.4,1.9c1.5,0,2-2.2,2.1-4.9Z"/>
      <path class="st1" d="M208.9,146.6c0,3.4-3.3,6-8.8,6s-1.2,0-1.9-.1c-.6,0-1.2-.3-1.8-.2-.3,0-.6.2-.9.2-.3,0-.6-.2-.9-.4-.6-.5-1.1-1-1.5-1.6-.4-.5-.8-1.1-.8-1.8s.7-1.8,1.7-1.8c2,0,2.1,2.9,4.9,2.9s2.4-.5,2.4-1.5c0-2.6-8.5-.5-8.5-6.2s3.6-6.1,8.6-6.1,1.5,0,2.3.2c.5,0,1.5.4,1.9.1,0,0,.1-.1.2-.2,0,0,.2-.1.3-.1.5,0,.9.3,1.2.7.8,1,1,2,1,3.2s-.3,1.7-1.3,1.7c-1.8,0-1.4-3.1-4.4-3.1s-2.2.5-2.2,1.4c0,2.6,8.5.6,8.5,6.6Z"/>
      <path class="st1" d="M227.6,147.9c.2.7,0,1.5-.6,2,0,0,0,0-.1.1,0,0,0,0,0,0,0,0,0,0,0,0-.2.2-.4.3-.6.5-.1.1-.3.2-.4.3-.1,0-.2.1-.3.2-.2.1-.4.2-.6.3-.1,0-.2,0-.3.1-.2,0-.5.2-.7.3-.1,0-.2,0-.3.1-1.3.4-2.7.7-4,.7s0,0,0,0,0,0,0,0c-4.8,0-9.6-2.7-9.6-8s0,0,0,0c0,0,0,0,0,0,0-4.9,4.5-8.5,9.6-8.5s8.4,4.2,8.4,6.6-1,2.4-2.1,2.4h-7.4c-.3,0-.5,0-.8,0,0,0,0,0,0,0h.1c-.1,0-.2,0-.2,0,0,0,0,.2,0,.2,0,.6.1,1.1.3,1.5.1.3.3.6.5.8.6.8,1.7,1.2,3,1.2s.9,0,1.4-.2c.4-.1.9-.4,1.4-.7.1,0,.3-.2.4-.3.3-.3.6-.5,1-.7.2,0,.5-.1.7-.1s.4,0,.6,0c.6.2.9.6,1.1,1.1ZM217.1,141c0,1.1,1.2.9,2.1.9s2,.2,2-1-.8-2-2-2-2.1,1.1-2.1,2.1Z"/>
      <path class="st1" d="M253.4,146.6c0,3.4-3.3,6-8.8,6s-1.2,0-1.9-.1c-.6,0-1.2-.3-1.8-.2-.3,0-.6.2-.9.2-.3,0-.6-.2-.9-.4-.6-.5-1.1-1-1.5-1.6-.4-.5-.8-1.1-.8-1.8s.7-1.8,1.7-1.8c2,0,2.1,2.9,4.9,2.9s2.4-.5,2.4-1.5c0-2.6-8.5-.5-8.5-6.2s3.6-6.1,8.6-6.1,1.5,0,2.3.2c.5,0,1.5.4,1.9.1,0,0,.1-.1.2-.2,0,0,.2-.1.3-.1.5,0,.9.3,1.2.7.8,1,1,2,1,3.2s-.3,1.7-1.3,1.7c-1.8,0-1.4-3.1-4.4-3.1s-2.2.5-2.2,1.4c0,2.6,8.5.6,8.5,6.6Z"/>
      <path class="st1" d="M275.3,149.8c0,.8-.7,1.3-2.4,1.8-.8.3-3.2.9-4,.9-1.2,0-1.4-1-1.6-2.2-1.4,1.6-3.2,2.2-5.1,2.2-4.3,0-6.3-2.5-6.3-6.6v-1.4h0v-3.5c0-1.8-1.9-1.1-1.9-2.6s1-1.4,2.2-1.5c1.6-.2,4.5-.9,5.2-.9,1,0,1.6.7,1.6,3v3.3h0v4.2c0,1.5.5,2.7,1.8,2.7s1.5-.7,1.7-1.6c0-.2,0-.5.1-.7v-5.8c0-1.8-1.9-1.1-1.9-2.6s1-1.4,2.2-1.5c1.6-.2,4.5-.9,5.2-.9,1,0,1.6.7,1.6,3v4.8c0,.3,0,.7,0,1.1v2.3c0,2.1,1.6,1.3,1.6,2.6Z"/>
      <path class="st1" d="M296.6,144.1c0,1.7-.5,3.3-1.5,4.7-.9,1.3-2.3,2.3-3.7,3-2,.8-4.3,1.2-6.3.3-.3-.1-.6-.3-.9-.4v2.1c0,2.8,1.9,1.4,1.9,3s-.7,1.1-2.2,1.6c-1,.3-3.2.9-4.5.9s-2.4-.9-2.4-1.8v-4s0-11.6,0-11.6c0-2.2-1.6-1.5-1.6-3.2s.8-1.3,1.5-1.6c1.1-.5,2.3-.7,3.5-.8.5,0,1,0,1.5-.1.3,0,.7,0,1,0,.2.1.4.3.5.5.2.5.3,1,.5,1.5,1.1-1.6,2.9-2.1,4.8-2.1,4.7,0,8.1,3.4,8.1,8.1ZM288.8,144.4c0-3.7-1.3-4.8-2.4-4.8s-1.9.9-1.9,3.3v2.9c0,2.4.9,3.3,1.9,3.3s2.4-1.1,2.4-4.8Z"/>
      <path class="st1" d="M318.5,144.1c0,1.7-.5,3.3-1.5,4.7-.9,1.3-2.3,2.3-3.7,3-2,.8-4.3,1.2-6.3.3-.3-.1-.6-.3-.9-.4v2.1c0,2.8,1.9,1.4,1.9,3s-.7,1.1-2.2,1.6c-.9.3-3.2.9-4.5.9s-2.4-.9-2.4-1.8v-4s0-11.6,0-11.6c0-2.2-1.6-1.5-1.6-3.2s.8-1.3,1.5-1.6c1.1-.5,2.3-.7,3.5-.8.5,0,1,0,1.5-.1.3,0,.7,0,1,0,.2.1.4.3.5.5.2.5.3,1,.5,1.5,1.1-1.6,2.9-2.1,4.8-2.1,4.7,0,8.1,3.4,8.1,8.1ZM310.7,144.4c0-3.7-1.3-4.8-2.4-4.8s-1.9.9-1.9,3.3v2.9c0,2.4.9,3.3,1.9,3.3s2.4-1.1,2.4-4.8Z"/>
      <path class="st1" d="M339.5,144.3c0,5.4-5.3,8.3-10.1,8.3s-10.1-2.9-10.1-8.3c0-5.4,5.3-8.3,10.1-8.3s10.1,2.9,10.1,8.3ZM331.6,143.8c-.7-3.2-1.8-4.6-3.3-4.3s-1.9,2.1-1.2,5.3c.7,3.2,1.8,4.6,3.3,4.3,1.5-.3,1.9-2.1,1.2-5.3Z"/>
      <path class="st1" d="M355.1,138.9c0,1.6-1.1,2.8-2.7,2.8s-1.3-.3-2-.3-1.3.7-1.3,2v4.5c0,.3,0,.5.1.7.3,1,1.8.8,1.8,1.9,0,2.1-3.9,2-5.2,2s-5.9.2-5.9-2.1,1.5-1,1.7-1.9c.2-.5.2-1.3.3-2.3v-3.3c0-.3,0-.5,0-.7-.1-2.8-2.3-2.1-2.3-3.6s.5-1.1,2.1-1.7c.9-.3,3.6-1,4.5-1,1.5,0,1.8,1.8,1.9,3h0c.8-1.6,2.4-3,4.3-3s2.8,1.3,2.8,2.9Z"/>
      <path class="st1" d="M369.8,148.7c0,2.1-3.4,3.9-6.5,3.9s-5.4-.7-5.4-5.7v-6.4c0-1-1.1-.8-1.7-1.1-.5-.2-.9-.6-1-1.1-.3-1.2.9-1.7,1.7-2.1,1.1-.5,2.1-1.3,2.9-2.2.7-.8,1.5-1.6,2.5-1.8.6-.1,1.3,0,1.9-.1.5,0,.8.4.8.9v2.9c0,.3.3.6.6.6h2.5c.7,0,1.2.5,1.2,1.2v.8c0,.7-.5,1.2-1.2,1.2h-2.6c-.3,0-.6.3-.6.6v5.3c0,1.9.9,2.4,1.6,2.4s1.5-.7,2-.7,1,.9,1,1.5Z"/>
      <path class="st1" d="M393,148.7c0,2.1-3.4,3.9-6.5,3.9s-5.4-.7-5.4-5.7v-6.4c0-1-1.1-.8-1.7-1.1-.5-.2-.9-.6-1-1.1-.3-1.2.9-1.7,1.7-2.1,1.1-.5,2.1-1.3,2.9-2.2.7-.8,1.5-1.6,2.5-1.8.6-.1,1.3,0,1.9-.1.5,0,.8.4.8.9v2.9c0,.3.3.6.6.6h2.5c.7,0,1.2.5,1.2,1.2v.8c0,.7-.5,1.2-1.2,1.2h-2.6c-.3,0-.6.3-.6.6v5.3c0,1.9.9,2.4,1.6,2.4s1.5-.7,2-.7,1,.9,1,1.5Z"/>
      <path class="st1" d="M413.6,144.3c0,5.4-5.3,8.3-10.1,8.3s-10.1-2.9-10.1-8.3c0-5.4,5.3-8.3,10.1-8.3s10.1,2.9,10.1,8.3ZM405.8,143.8c-.7-3.2-1.8-4.6-3.3-4.3-1.5.3-1.9,2.1-1.2,5.3.7,3.2,1.8,4.6,3.3,4.3,1.5-.3,1.9-2.1,1.2-5.3Z"/>
      <path class="st1" d="M136.3,181.7c-.1.2-.3.4-.5.5-.5.4-1.1.7-1.6,1-1.2.6-2.4.9-3.7,1.1-.4,0-.9,0-1.3,0-4.9,0-9.6-2.9-9.6-8.3s.6-3.6,1.7-5.1c1.5-1.8,3.6-2.7,5.9-3,2.4-.4,4.9-.3,7,.9,1.3.8,2.5,2.1,2.5,3.7s-1.3,3.2-3.1,3.2-2.2-1-2.6-2.3c-.7-2-3-2.2-3.6,0,0,0,0,.1,0,.2-.4,1.8-.5,4.2,1.1,5.4,1.3,1,3.2.9,4.5,0,.1,0,.3-.2.4-.3.2-.1.4-.3.6-.4.3-.2.6-.2.9-.2s.6,0,.8.2c0,0,0,0,.1,0,.5.3.9.8,1,1.3.1.8-.1,1.4-.5,1.9Z"/>
      <path class="st1" d="M157.8,176c0,5.4-5.3,8.3-10.1,8.3s-10.1-2.9-10.1-8.3c0-5.4,5.3-8.3,10.1-8.3s10.1,2.9,10.1,8.3ZM150,175.5c-.7-3.2-1.8-4.6-3.3-4.3s-1.9,2.1-1.2,5.3c.7,3.2,1.8,4.6,3.3,4.3,1.5-.3,1.9-2.1,1.2-5.3Z"/>
      <path class="st1" d="M177,169.3c0,.5-.7,1-1.5,1.8-.2.2-.3.7-.4,1-.3.7-3.5,9.4-4.3,10.5-.4.6-.9,1.2-1.7,1.4-.6.2-1.2.1-1.9.1-1,0-2.1-.1-2.8-.9-.8-.9-1.3-2.2-1.8-3.3-1.1-2.2-2.1-4.5-3.2-6.7-.3-.7-.6-1.4-1.2-1.9-.5-.5-1.1-1.2-1.1-1.9s.8-1.2,2.3-1.2h6c1.5,0,2.1.6,2.1,1.3s-.3.9-.6,1.2c-.4.4-.7.7-.5,1.3.1.3.3.7.4,1,.3.8.7,1.7,1,2.5.3.7.6,1.5.9,2.2l2.2-5.9s0,0,0,0c0-.3.2-.5,0-.8-.2-.3-.5-.4-.8-.5-.4-.2-.8-.5-.8-1,0-.8.6-1.2,1.5-1.2h4.6c.8,0,1.6.4,1.6,1.1Z"/>
      <path class="st1" d="M194,179.6c.2.7,0,1.5-.6,2,0,0,0,0-.1.1,0,0,0,0,0,0,0,0,0,0,0,0-.2.2-.4.3-.6.5-.1.1-.3.2-.4.3-.1,0-.2.1-.3.2-.2.1-.4.2-.6.3-.1,0-.2,0-.3.1-.2,0-.5.2-.7.3-.1,0-.2,0-.3.1-1.3.4-2.7.7-4,.7s0,0,0,0,0,0,0,0c-4.8,0-9.6-2.7-9.6-8s0,0,0,0c0,0,0,0,0,0,0-4.9,4.5-8.5,9.6-8.5s8.4,4.2,8.4,6.6-1,2.4-2.1,2.4h-7.4c-.3,0-.5,0-.8,0,0,0,0,0,0,0h.1c-.1,0-.2,0-.2,0,0,0,0,.2,0,.2,0,.6.1,1.1.3,1.5.1.3.3.6.5.8.6.8,1.7,1.2,3,1.2s.9,0,1.4-.2c.4-.1.9-.4,1.4-.7.1,0,.3-.2.4-.3.3-.3.6-.5,1-.7.2,0,.5-.1.7-.1s.4,0,.6,0c.6.2.9.6,1.1,1.1ZM183.6,172.7c0,1.1,1.2.9,2.1.9s2,.2,2-1-.8-2-2-2-2.1,1.1-2.1,2.1Z"/>
      <path class="st1" d="M210.2,170.6c0,1.6-1.1,2.8-2.7,2.8s-1.3-.3-2-.3-1.3.7-1.3,2v4.5c0,.3,0,.5.1.7.3,1,1.8.8,1.8,1.9,0,2.1-3.9,2-5.2,2s-5.9.2-5.9-2.1,1.5-1,1.7-1.9c.2-.5.2-1.3.3-2.3v-3.3c0-.3,0-.5,0-.7-.1-2.8-2.3-2.1-2.3-3.6s.5-1.1,2.1-1.7c.9-.3,3.6-1,4.5-1,1.5,0,1.8,1.8,1.9,3h0c.8-1.6,2.4-3,4.3-3s2.8,1.3,2.8,2.9Z"/>
      <path class="st1" d="M238.7,180.6c0,1.8-2.5,3.8-4.8,3.8s-2.6-1.6-3.4-1.6-1.2.6-1.8.8c-.6.2-1.1.4-1.7.5-1.2.2-2.5.2-3.7,0-2.4-.6-4.3-2.3-4.3-4.9s2.9-5.6,10.6-5.6c0-2.6-.6-3.1-1.9-3.1s-1.9,2.5-4.5,2.5-2.8-.8-2.8-1.9c0-1.9,2.5-3.1,8-3.1s8.1,1,8.5,5.5c0,.2,0,.7,0,.8v3c0,.3,0,.5,0,.8.3,3.5,1.9,1.2,1.9,2.7ZM229.6,176.1c0-.1-.1-.2-.2-.2-1.9,0-3.3,1.2-3.3,3.2s.6,1.9,1.4,1.9c1.5,0,2-2.2,2.1-4.9Z"/>
      <path class="st1" d="M259.7,175.8c0,1.7-.5,3.3-1.5,4.7-.9,1.3-2.3,2.3-3.7,3-2,.8-4.3,1.2-6.3.3-.3-.1-.6-.3-.9-.4v2.1c0,2.8,1.9,1.4,1.9,3s-.7,1.1-2.2,1.6c-.9.3-3.2.9-4.5.9s-2.4-.9-2.4-1.8v-4s0-11.6,0-11.6c0-2.2-1.6-1.5-1.6-3.2s.8-1.3,1.5-1.6c1.1-.5,2.3-.7,3.5-.8.5,0,1,0,1.5-.1.3,0,.7,0,1,0,.2.1.4.3.5.5.2.5.3,1,.5,1.5,1.1-1.6,2.9-2.1,4.8-2.1,4.7,0,8.1,3.4,8.1,8.1ZM251.9,176c0-3.7-1.3-4.8-2.4-4.8s-1.9.9-1.9,3.3v2.9c0,2.4.9,3.3,1.9,3.3s2.4-1.1,2.4-4.8Z"/>
      <path class="st1" d="M281.6,175.8c0,1.7-.5,3.3-1.5,4.7-.9,1.3-2.3,2.3-3.7,3-2,.8-4.3,1.2-6.3.3-.3-.1-.6-.3-.9-.4v2.1c0,2.8,1.9,1.4,1.9,3s-.7,1.1-2.2,1.6c-.9.3-3.2.9-4.5.9s-2.4-.9-2.4-1.8v-4s0-11.6,0-11.6c0-2.2-1.6-1.5-1.6-3.2s.8-1.3,1.5-1.6c1.1-.5,2.3-.7,3.5-.8.5,0,1,0,1.5-.1.3,0,.7,0,1,0,.2.1.4.3.5.5.2.5.3,1,.5,1.5,1.1-1.6,2.9-2.1,4.8-2.1,4.7,0,8.1,3.4,8.1,8.1ZM273.8,176c0-3.7-1.3-4.8-2.4-4.8s-1.9.9-1.9,3.3v2.9c0,2.4.9,3.3,1.9,3.3s2.4-1.1,2.4-4.8Z"/>
      <path class="st1" d="M283.6,171.6c1.5,0,2.7-.4,3.5-1.1.8-.7,1.3-1.5,1.3-2.6-.2.1-.4.2-.7.2-.2,0-.5,0-.7,0-1.1,0-2-.3-2.6-1-.6-.7-1-1.5-1-2.5s.3-2,1-2.7,1.6-1,2.8-1,2.1.4,2.8,1.2c.8.8,1.1,1.9,1.1,3.4s-.3,3.4-1,4.5c-.6,1.1-1.5,2-2.7,2.5-1.1.5-2.5.8-4,.8v-1.9Z"/>
      <path class="st1" d="M309.4,178.3c0,3.4-3.3,6-8.8,6s-1.2,0-1.9-.1c-.6,0-1.2-.3-1.8-.2-.3,0-.6.2-.9.2-.3,0-.6-.2-.9-.4-.6-.5-1.1-1-1.5-1.6-.4-.5-.8-1.1-.8-1.8s.7-1.8,1.7-1.8c2,0,2.1,2.9,4.9,2.9s2.4-.5,2.4-1.5c0-2.6-8.5-.5-8.5-6.2s3.6-6.1,8.6-6.1,1.5,0,2.3.2c.5,0,1.5.4,1.9.1,0,0,.1-.1.2-.2,0,0,.2-.1.3-.1.5,0,.9.3,1.2.7.8,1,1,2,1,3.2s-.3,1.7-1.3,1.7c-1.8,0-1.4-3.1-4.4-3.1s-2.2.5-2.2,1.4c0,2.6,8.5.6,8.5,6.6Z"/>
      <path class="st1" d="M335.2,181.7c-.1.2-.3.4-.5.5-.5.4-1.1.7-1.6,1-1.2.6-2.4.9-3.7,1.1-.4,0-.9,0-1.3,0-4.9,0-9.6-2.9-9.6-8.3s.6-3.6,1.7-5.1c1.5-1.8,3.6-2.7,5.9-3,2.4-.4,4.9-.3,7,.9,1.3.8,2.5,2.1,2.5,3.7s-1.3,3.2-3.1,3.2-2.2-1-2.6-2.3c-.7-2-3-2.2-3.6,0,0,0,0,.1,0,.2-.4,1.8-.5,4.2,1.1,5.4,1.3,1,3.2.9,4.5,0,.1,0,.3-.2.4-.3.2-.1.4-.3.6-.4.3-.2.6-.2.9-.2s.6,0,.8.2c0,0,0,0,.1,0,.5.3.9.8,1,1.3.1.8-.1,1.4-.5,1.9Z"/>
      <path class="st1" d="M356.8,176c0,5.4-5.3,8.3-10.1,8.3s-10.1-2.9-10.1-8.3c0-5.4,5.3-8.3,10.1-8.3s10.1,2.9,10.1,8.3ZM348.9,175.5c-.7-3.2-1.8-4.6-3.3-4.3-1.5.3-1.9,2.1-1.2,5.3.7,3.2,1.8,4.6,3.3,4.3,1.5-.3,1.9-2.1,1.2-5.3Z"/>
      <path class="st1" d="M374,178.3c0,3.4-3.3,6-8.8,6s-1.2,0-1.9-.1c-.6,0-1.2-.3-1.8-.2-.3,0-.6.2-.9.2-.3,0-.6-.2-.9-.4-.6-.5-1.1-1-1.5-1.6-.4-.5-.8-1.1-.8-1.8s.7-1.8,1.7-1.8c2,0,2.1,2.9,4.9,2.9s2.4-.5,2.4-1.5c0-2.6-8.5-.5-8.5-6.2s3.6-6.1,8.6-6.1,1.5,0,2.3.2c.5,0,1.5.4,1.9.1,0,0,.1-.1.2-.2,0,0,.2-.1.3-.1.5,0,.9.3,1.2.7.8,1,1,2,1,3.2s-.3,1.7-1.3,1.7c-1.8,0-1.4-3.1-4.4-3.1s-2.2.5-2.2,1.4c0,2.6,8.5.6,8.5,6.6Z"/>
      <path class="st1" d="M389.1,180.4c0,2.1-3.4,3.9-6.5,3.9s-5.4-.7-5.4-5.7v-6.4c0-1-1.1-.8-1.7-1.1-.5-.2-.9-.6-1-1.1-.3-1.2.9-1.7,1.7-2.1,1.1-.5,2.1-1.3,2.9-2.2.7-.8,1.5-1.6,2.5-1.8.6-.1,1.3,0,1.9-.1.5,0,.8.4.8.9v2.9c0,.3.3.6.6.6h2.5c.7,0,1.2.5,1.2,1.2v.8c0,.7-.5,1.2-1.2,1.2h-2.6c-.3,0-.6.3-.6.6v5.3c0,1.9.9,2.4,1.6,2.4s1.5-.7,2-.7,1,.9,1,1.5Z"/>
      <path class="st1" d="M406.4,178.3c0,3.4-3.3,6-8.8,6s-1.2,0-1.9-.1c-.6,0-1.2-.3-1.8-.2-.3,0-.6.2-.9.2-.3,0-.6-.2-.9-.4-.6-.5-1.1-1-1.5-1.6-.4-.5-.8-1.1-.8-1.8s.7-1.8,1.7-1.8c2,0,2.1,2.9,4.9,2.9s2.4-.5,2.4-1.5c0-2.6-8.5-.5-8.5-6.2s3.6-6.1,8.6-6.1,1.5,0,2.3.2c.5,0,1.5.4,1.9.1,0,0,.1-.1.2-.2,0,0,.2-.1.3-.1.5,0,.9.3,1.2.7.8,1,1,2,1,3.2s-.3,1.7-1.3,1.7c-1.8,0-1.4-3.1-4.4-3.1s-2.2.5-2.2,1.4c0,2.6,8.5.6,8.5,6.6Z"/>
      <path class="st1" d="M412.6,184.3c-1.2,0-2.1-.3-2.8-1-.7-.7-1.1-1.6-1.1-2.6s.4-2,1.1-2.7c.7-.7,1.6-1,2.8-1s2.1.3,2.8,1c.7.7,1.1,1.6,1.1,2.7s-.4,2-1.1,2.6c-.7.7-1.6,1-2.8,1ZM411.3,175.7c-.3-1.1-.6-2.1-.9-2.9-.3-.9-.5-1.7-.7-2.4-.2-.7-.4-1.4-.5-2-.1-.6-.2-1.2-.3-1.7,0-.5,0-1,0-1.4,0-1.3.3-2.3,1-3,.7-.7,1.6-1.1,2.7-1.1s2.1.4,2.7,1.1c.7.7,1,1.7,1,3s0,.9,0,1.4c0,.5-.2,1.1-.3,1.7-.1.6-.3,1.3-.5,2-.2.7-.4,1.5-.7,2.4-.3.9-.5,1.9-.9,2.9h-2.6Z"/>
    </g>
    <g>
      <path class="st1" d="M126.1,113.8c-1.7,0-6.9,0-6.9-2.7s1.4-1.5,2-2.3c.4-.5.8-1.7.9-5.8v-13.3c0-.3,0-.5-.1-.7-.4-1.1-2.4-.9-2.4-2.3s.2-.9.5-1.2c0,0,0,0,0,0,1.4-1.2,5-1.1,6.4-1.1s7.9-.2,7.9,2.5-2,1.2-2.3,2.2c-.2.5-.3,1.4-.3,2.5v1.4s0,0,0,0v12.5c0,2.7.5,4,3.2,4,6.6,0,4.3-5.4,6.8-5.4s2.4,5,1.6,6.9c-.3.7-.6,1.4-1.1,2-.5.7-1.1.8-1.9.8-.4,0-.8,0-1.1,0h-1.2c-.6,0-2.4,0-2.7,0h-9.4Z"/>
      <path class="st1" d="M170.4,103.6c0,6.9-6.8,10.6-12.9,10.6s-12.9-3.7-12.9-10.6c0-6.9,6.8-10.6,12.9-10.6s12.9,3.7,12.9,10.6ZM160.4,103c-.9-4.1-2.3-5.9-4.2-5.5-1.9.4-2.4,2.7-1.5,6.8s2.3,5.9,4.2,5.5c1.9-.4,2.4-2.7,1.5-6.8Z"/>
      <path class="st1" d="M194.9,95c0,.6-.9,1.3-1.9,2.2-.3.3-.4.9-.5,1.2-.3.9-4.5,12-5.5,13.4-.5.8-1.2,1.5-2.2,1.8-.8.2-1.6.2-2.4.2-1.2,0-2.7-.2-3.6-1.1-1-1.1-1.7-2.8-2.4-4.2-1.4-2.8-2.7-5.7-4-8.5-.4-.9-.7-1.7-1.5-2.4-.7-.6-1.4-1.5-1.4-2.4s1-1.5,3-1.5h7.7c2,0,2.7.7,2.7,1.7s-.3,1.1-.7,1.5c-.5.5-.9.9-.7,1.6.2.4.3.9.5,1.3.4,1.1.8,2.2,1.3,3.2.4.9.7,1.9,1.1,2.8l2.8-7.6s0,0,0,0c.1-.3.3-.6,0-1-.2-.3-.7-.5-1-.7-.5-.3-1-.7-1-1.3,0-1,.8-1.6,1.9-1.6h5.8c1,0,2,.6,2,1.4Z"/>
      <path class="st1" d="M216.8,108.3c.2.8,0,1.9-.8,2.6,0,0-.1,0-.2.1,0,0,0,0,0,0,0,0,0,0,0,0-.2.2-.5.4-.8.6-.2.1-.4.3-.6.4-.1,0-.3.2-.4.3-.3.1-.5.3-.8.4-.1,0-.3.1-.4.2-.3.1-.6.2-.9.3-.1,0-.3.1-.4.2-1.7.6-3.4.9-5.1.9s0,0,0,0,0,0,0,0c-6.1,0-12.3-3.5-12.3-10.3s0,0,0,0,0,0,0,0c0-6.3,5.7-10.8,12.3-10.8s10.7,5.3,10.7,8.4-1.3,3.1-2.7,3.1h-9.5c-.3,0-.7,0-1,0,0,0,0,0,0,0h.2c-.2,0-.3,0-.3,0,0,0,0,.2,0,.3,0,.7.2,1.4.4,1.9.2.4.4.8.6,1.1.8,1,2.2,1.6,3.8,1.6s1.2,0,1.8-.3c.6-.2,1.1-.5,1.8-1,.2-.1.3-.3.5-.4.4-.3.8-.7,1.3-.9.3-.1.6-.2.9-.2s.5,0,.7.1c.7.2,1.2.7,1.4,1.4ZM203.4,99.4c0,1.5,1.5,1.1,2.6,1.1s2.6.2,2.6-1.2-1-2.6-2.6-2.6-2.6,1.4-2.6,2.7Z"/>
      <path class="st1" d="M269.6,95s0,0,0,0c0,.6-.8,1.3-1.9,2.2-.3.3-.4.9-.5,1.2-.3.9-4.5,12-5.5,13.4-.5.8-1.2,1.5-2.2,1.8-.8.2-1.6.2-2.4.2h0c-.9,0-1.9-.1-2.8-.5,0,0,0,0,0,0,0,0-.1,0-.2-.1-.2-.1-.4-.2-.6-.4-.2-.2-.4-.5-.5-.7-.7-1.1-1.3-2.4-1.8-3.5-.8-1.6-1.5-3.1-2.3-4.7-1.3,3.4-2.9,7.3-3.4,8.1-.5.8-1.2,1.5-2.2,1.8-.8.2-1.6.2-2.4.2s-1.9-.1-2.7-.5c-1-.4-1.4-1.3-1.8-2.2-.4-.8-.8-1.7-1.2-2.5-1-2-4-8.2-4.2-8.6-.4-.9-.7-1.7-1.5-2.4-.7-.6-1.4-1.5-1.4-2.4s1-1.5,3-1.5h7.7c2,0,2.7.7,2.7,1.7s-.3,1.1-.7,1.5c-.5.5-.9.9-.7,1.6.2.4.3.9.5,1.3.4,1.1.8,2.2,1.3,3.2.5,1.3,1,2.6,1.5,4l3.1-8.5c0-.1-.1-.3-.2-.4-.1-.2-.3-.4-.5-.5-.7-.6-1.4-1.5-1.4-2.4s.7-1.4,2.1-1.5c.3,0,.6,0,.8,0,0,0,0,0,0,0h7.7c1,0,1.7.2,2.1.5.4.3.6.7.6,1.2s-.3,1.1-.7,1.5c-.5.5-.9.9-.7,1.6.2.4.3.9.5,1.3.4,1.1.8,2.2,1.3,3.2.4.9.7,1.9,1.1,2.8l2.8-7.5s0,0,0,0c.1-.3.3-.6,0-1-.2-.3-.7-.5-1-.7-.5-.3-1-.7-1-1.3,0-1,.8-1.6,1.9-1.6h5.8c1,0,2,.6,2,1.4s0,0,0,0Z"/>
      <path class="st1" d="M296.8,111.7c0,2.7-4.9,2.5-6.7,2.5s-6.7.2-6.7-2.7,1.1-1.3,1.5-2.4c.1-.4.2-.9.2-1.6v-6.8c0-1.9-.6-3.4-2.3-3.4s-2.3,1.5-2.3,3.4v7.2c0,.5,0,1,.2,1.3.3,1.1,1.7,1.3,1.7,2.5,0,2.7-4.4,2.5-6.1,2.5s-7.5.2-7.5-2.7,1.9-1.3,2.2-2.4c.2-.5.2-1.4.3-2.4v-15.7c0-2.3-2.4-1.4-2.4-3.4s.6-1.7,2.3-1.8c2.1-.2,6.5-1.3,7.3-1.3,1.3,0,2.1.8,2.1,3.9v6.3c1.7-1,3.8-1.7,5.7-1.7,5.5,0,8.1,3.3,8.1,8.5v5c0,.7,0,2.1.2,2.7.2.8,1,.9,1.6,1.4.4.3.7.6.7,1.1Z"/>
      <path class="st1" d="M322.7,109.5c0,2.3-3.2,4.9-6.2,4.9s-3.3-2.1-4.3-2.1-1.6.7-2.3,1.1c-.7.3-1.5.5-2.2.7-1.6.3-3.2.3-4.7,0-3.1-.7-5.6-3-5.6-6.3s3.7-7.2,13.5-7.2c0-3.3-.8-4-2.5-4s-2.4,3.1-5.8,3.1-3.5-1-3.5-2.5c0-2.4,3.1-4,10.3-4s10.4,1.3,10.9,7.1c0,.2,0,.9,0,1v3.9c0,.3,0,.7,0,1,.4,4.4,2.4,1.5,2.4,3.5ZM311.1,103.8c0-.2-.1-.3-.3-.3-2.5.1-4.2,1.6-4.2,4.1s.8,2.4,1.8,2.4c2,0,2.6-2.8,2.6-6.3Z"/>
      <path class="st1" d="M340.2,109.2c0,2.7-4.4,5-8.3,5s-6.9-.9-6.9-7.4v-8.2c0-1.2-1.4-1-2.2-1.3-.6-.3-1.1-.8-1.3-1.4-.4-1.5,1.1-2.2,2.2-2.7,1.4-.7,2.6-1.6,3.7-2.8.9-1,1.9-2,3.2-2.3.8-.2,1.7-.1,2.5-.1.6,0,1.1.5,1.1,1.1v3.7c0,.4.4.8.8.8h3.3c.8,0,1.5.7,1.5,1.5v1c0,.8-.7,1.5-1.5,1.5h-3.3c-.4,0-.8.4-.8.8v6.8c0,2.5,1.1,3.1,2.1,3.1s1.9-.9,2.6-.9,1.3,1.1,1.3,1.9Z"/>
      <path class="st1" d="M392.5,95s0,0,0,0c0,.6-.8,1.3-1.9,2.2-.3.3-.4.9-.5,1.2-.3.9-4.5,12-5.5,13.4-.5.8-1.2,1.5-2.2,1.8-.8.2-1.6.2-2.4.2h0c-.9,0-1.9-.1-2.8-.5,0,0,0,0,0,0,0,0-.1,0-.2-.1-.2-.1-.4-.2-.6-.4-.2-.2-.4-.5-.5-.7-.7-1.1-1.3-2.4-1.8-3.5-.8-1.6-1.5-3.1-2.3-4.7-1.3,3.4-2.9,7.3-3.4,8.1-.5.8-1.2,1.5-2.2,1.8-.8.2-1.6.2-2.4.2s-1.9-.1-2.7-.5c-1-.4-1.4-1.3-1.8-2.2-.4-.8-.8-1.7-1.2-2.5-1-2-4-8.2-4.2-8.6-.4-.9-.7-1.7-1.5-2.4-.7-.6-1.4-1.5-1.4-2.4s1-1.5,3-1.5h7.7c2,0,2.7.7,2.7,1.7s-.3,1.1-.7,1.5c-.5.5-.9.9-.7,1.6.2.4.3.9.5,1.3.4,1.1.8,2.2,1.3,3.2.5,1.3,1,2.6,1.5,4l3.1-8.5c0-.1-.1-.3-.2-.4-.1-.2-.3-.4-.5-.5-.7-.6-1.4-1.5-1.4-2.4s.7-1.4,2.1-1.5c.3,0,.6,0,.8,0,0,0,0,0,0,0h7.7c1,0,1.7.2,2.1.5.4.3.6.7.6,1.2s-.3,1.1-.7,1.5c-.5.5-.9.9-.7,1.6.2.4.3.9.5,1.3.4,1.1.8,2.2,1.3,3.2.4.9.7,1.9,1.1,2.8l2.8-7.5s0,0,0,0c.1-.3.3-.6,0-1-.2-.3-.7-.5-1-.7-.5-.3-1-.7-1-1.3,0-1,.8-1.6,1.9-1.6h5.8c1,0,2,.6,2,1.4s0,0,0,0Z"/>
      <path class="st1" d="M414.4,108.3c.2.8,0,1.9-.8,2.6,0,0-.1,0-.2.1,0,0,0,0,0,0,0,0,0,0,0,0-.2.2-.5.4-.8.6-.2.1-.4.3-.6.4-.1,0-.3.2-.4.3-.3.1-.5.3-.8.4-.1,0-.3.1-.4.2-.3.1-.6.2-.9.3-.1,0-.3.1-.4.2-1.7.6-3.4.9-5.1.9s0,0,0,0,0,0,0,0c-6.1,0-12.3-3.5-12.3-10.3s0,0,0,0,0,0,0,0c0-6.3,5.7-10.8,12.3-10.8s10.7,5.3,10.7,8.4-1.3,3.1-2.7,3.1h-9.5c-.3,0-.7,0-1,0,0,0,0,0,0,0h.2c-.2,0-.3,0-.3,0,0,0,0,.2,0,.3,0,.7.2,1.4.4,1.9.2.4.4.8.6,1.1.8,1,2.2,1.6,3.8,1.6s1.2,0,1.8-.3c.6-.2,1.1-.5,1.8-1,.2-.1.3-.3.5-.4.4-.3.8-.7,1.3-.9.3-.1.6-.2.9-.2s.5,0,.7.1c.7.2,1.2.7,1.4,1.4ZM401,99.4c0,1.5,1.5,1.1,2.6,1.1s2.6.2,2.6-1.2-1-2.6-2.6-2.6-2.6,1.4-2.6,2.7Z"/>
      <path class="st1" d="M453.5,111c0,1.1-1,1.7-1.9,2.1-1.4.6-2.9.9-4.4,1-.6,0-1.2.1-1.9.2-.4,0-.9.1-1.3,0-.3-.1-.5-.4-.6-.7-.3-.6-.4-1.3-.6-1.9-1.4,2-3.7,2.7-6.1,2.7-6,0-10.4-4.3-10.4-10.3s.6-4.3,1.9-6c1.2-1.7,2.9-3,4.8-3.8,2.5-1.1,5.5-1.5,8.1-.4.4.2.8.4,1.1.6v-2.8c0-3.6-2.4-1.8-2.4-3.8s.8-1.4,2.8-2.1c1.2-.4,4.1-1.1,5.7-1.1s3.1,1.1,3.1,2.3v5.2h0v14.8c0,2.9,2.1,1.9,2.1,4.1ZM442.1,101.9c0-3.1-1.1-4.3-2.5-4.3s-3,1.4-3,6.1,1.6,6.1,3,6.1,2.5-1.1,2.5-4.3v-3.7Z"/>
      <path class="st1" d="M479.6,103.6c0,6.9-6.8,10.6-12.9,10.6s-12.9-3.7-12.9-10.6c0-6.9,6.8-10.6,12.9-10.6s12.9,3.7,12.9,10.6ZM469.5,103c-.9-4.1-2.3-5.9-4.2-5.5-1.9.4-2.4,2.7-1.5,6.8.9,4.1,2.3,5.9,4.2,5.5,1.9-.4,2.4-2.7,1.5-6.8Z"/>
      <path class="st1" d="M485.5,95.4c-1.1,0-2.1-.3-3-1-.9-.7-1.3-1.7-1.3-3.1s.4-2.6,1.2-3.6c.8-1,2-1.8,3.5-2.4,1.5-.6,3.2-.8,5-.8s3.8.3,5.4.8c1.6.5,2.8,1.3,3.7,2.4s1.4,2.5,1.4,4.2l-7.4-.6c0-.8-.2-1.5-.5-2-.3-.5-.8-1-1.4-1.2-.6-.3-1.4-.4-2.2-.4s-1.6.1-2.2.4c-.7.3-1.2.6-1.7,1.1-.5.4-.8.9-1,1.5l-.2-1.3c1.6,0,2.7.3,3.5.8.8.5,1.2,1.3,1.2,2.3s-.3,1.7-1,2.3c-.7.6-1.6.9-2.8.9ZM491,114.2c-1.5,0-2.7-.4-3.6-1.3-.9-.9-1.3-2-1.3-3.4s.4-2.5,1.3-3.4c.9-.9,2.1-1.3,3.6-1.3s2.7.4,3.6,1.3c.9.9,1.3,2,1.3,3.4s-.4,2.5-1.3,3.4c-.9.9-2.1,1.3-3.6,1.3ZM489.3,103.3c-.9-1.6-1.2-3.1-.9-4.4.3-1.3,1-2.4,2.2-3.2.6-.4,1.2-.8,1.7-1.2s.9-.9,1.2-1.4.5-1.1.5-1.8l7.4.6c0,1.2-.2,2.2-.7,3.1-.4.9-1,1.6-1.6,2.2-.7.6-1.3,1.1-2.1,1.5-.7.4-1.4.8-2,1.1-.6.3-1,.6-1.4.9-.4.3-.6.7-.8,1.1-.2.4-.2.9-.2,1.5h-3.4Z"/>
    </g>
  </g>
  <g id="Smiley">
    <path class="st0" d="M473.1,174.6c-9,0-17.6-5.1-21.8-13.7-.4-.9,0-2,.9-2.4.9-.4,2,0,2.4.9,4.9,10.2,17.1,14.5,27.3,9.6.9-.4,2,0,2.4.9.4.9,0,2-.9,2.4-3.3,1.6-6.9,2.3-10.3,2.3Z"/>
    <g>
      <path class="st0" d="M464.8,160.4s0,0,0,0c-1,0-1.8-.9-1.7-1.9.3-6.1,4.4-10.1,4.6-10.3.7-.7,1.9-.7,2.6,0,.7.7.7,1.9,0,2.6h0s-3.2,3.3-3.5,7.9c0,1-.8,1.7-1.8,1.7Z"/>
      <path class="st0" d="M471.5,163.4s0,0,0,0c-1,0-1.8-.9-1.7-1.9.3-6.1,4.4-10.1,4.6-10.3.7-.7,1.9-.7,2.6,0,.7.7.7,1.9,0,2.6h0s-3.2,3.3-3.5,7.9c0,1-.8,1.7-1.8,1.7Z"/>
    </g>
  </g>
  <g id="Button">
    <rect id="button-bg" class="st0" x="120" y="208.2" width="242.5" height="63.7" rx="31.8" ry="31.8"/>
    <g id="button-text">
      <g>
        <path class="st3" d="M218.6,238.4c-.5-.7-1.2-1.4-2.2-1.9,2-.6,3.5-1.5,4.7-2.7,1.4-1.4,2.2-2.9,2.2-4.5s-.5-2.5-1.5-3.6c-.8-.9-2-1.7-3.7-2.4.6-.3,1.1-.4,1.5-.4s.8-.2.9-.4c.2-.2.3-.5.3-.8s0-.5-.3-.8c-.1-.2-.4-.4-.9-.4-.8,0-1.6.2-2.4.6-.7.3-1.5.8-2.2,1.4-.9-.2-1.9-.3-3-.4-1.1-.1-2.4-.2-3.7-.2-3.1,0-6,.3-8.4.9-2.5.6-4.6,1.4-6.4,2.4-1.8,1-3.2,2.1-4.3,3.3-1.1,1.2-1.9,2.4-2.2,3.6-.3.9-.5,1.8-.5,2.6,0,1.5.5,2.7,1.5,3.6,1.8,1.5,4.6,1.7,7.7.3,1.4-.6,2.9-1.6,4.3-2.9,1.4-1.3,2.7-3,3.9-5,.1-.2.2-.4.2-.6,0-.4-.2-.7-.4-.9-.6-.5-1.5-.3-1.9.3-1,1.8-2.1,3.3-3.4,4.4-1.2,1.1-2.4,2-3.5,2.5-2.3,1-4.1,1-5.2.2-.5-.4-.8-1-.8-1.9s.1-1,.3-1.7c.3-.9.9-1.8,1.8-2.8.9-1,2.1-1.9,3.7-2.8,1.6-.9,3.5-1.6,5.7-2.1,2.2-.5,4.9-.8,7.9-.8s2,0,2.8,0c.5,0,1,0,1.5.1-1,1-2.1,2.2-3.1,3.5-1.3,1.6-2.5,3.3-3.8,5-1.3,1.7-2.5,3.4-3.7,5.1-1.2,1.7-2.3,3.2-3.4,4.6-1,1.3-2,2.3-2.9,3.1l-.7-.3c-.3-.1-.6-.3-.9-.4-.8-.3-1.7-.8-2.6-1.2-.9-.5-1.9-.8-2.8-1-.5,0-.9-.1-1.4-.1-1.5,0-2.6.5-3.5,1.4-.8.9-1.3,1.9-1.3,3s.4,2,1.3,2.9c.9.9,2.2,1.3,4.1,1.3s2.9-.3,4.5-.8c1.5-.5,2.7-1.1,3.8-1.8.7.3,1.4.6,2.2.9.8.3,1.6.6,2.5.9,3.9,1.2,7.8,1.1,10.9,0,1.6-.6,3-1.3,4.1-2.2,1.2-.9,2.1-1.9,2.7-3.1.6-1.1,1-2.3,1-3.4s-.3-2.2-1-3.2ZM216,234.2c-2,.8-4.4,1.1-7.1.8h0s0,0,0,0c-.9.3-1.1.8-1.1,1.2s.1,1,1.2,1.1c1,0,2.1.1,3.3.3,1.1.2,2.2.5,3,1,.7.4,1.2.9,1.6,1.4.3.5.5,1.1.5,1.7,0,1-.4,2.1-1.3,3.2-.9,1.1-2.2,2-3.7,2.8-2.1,1-4.8,1.4-7.9.9-.8-.1-1.6-.3-2.5-.6-.7-.2-1.3-.4-2-.7-.5-.2-.9-.3-1.4-.5.8-.9,1.7-1.9,2.7-3.1,1.1-1.4,2.3-2.9,3.4-4.4,1.1-1.5,2.2-3,3.1-4.4,1-1.4,1.8-2.5,2.4-3.4.9-1.4,1.9-2.6,3-3.8,1-1.1,1.9-2,2.8-2.7,1.8.5,3.1,1.1,3.9,1.8.8.8,1.2,1.5,1.2,2.3s-.4,1.8-1.2,2.7c-.9.9-2,1.7-3.5,2.3ZM193.6,247.4c-.7.4-1.6.7-2.5.9h0c-1.2.3-2.3.5-3.3.5-1,0-1.7-.3-2.1-.6-.4-.4-.6-.7-.6-1.1s.2-.9.6-1.3c.4-.4,1-.6,1.8-.6s.3,0,.4,0c.1,0,.3,0,.4,0,.4,0,1,.3,1.9.7.7.3,1.4.6,2.1.9l1.3.6Z"/>
        <path class="st3" d="M252.7,240.5c-.3,0-.5.1-.7.3-.3.3-.6.7-.9,1.1-.3.4-.7.8-1.1,1.2-.6.6-1.2,1.2-1.9,1.7-.4.3-.9.6-1.4.9.2-1,.5-2.1.7-3.2.3-1.4.4-2.8.4-4.1s-.1-.7-.4-.9c-.6-.5-1.5-.4-2,.3-.3.5-.8,1.1-1.6,1.9-.7.8-1.6,1.6-2.4,2.4-.9.8-1.7,1.5-2.5,2.2-.8.6-1.4,1-1.8,1.3-.4.2-.6.2-.6.2,0,0,0,0,0-.4,0-.5.2-1.1.5-1.8.4-.7.8-1.5,1.3-2.2.5-.8,1-1.5,1.5-2.2.5-.8.9-1.6,1.1-2.3.2-.7.3-1.3.3-1.8s0-.9-.3-1.2c-.4-.5-.8-.6-1.1-.6s-.6,0-1,.5c-.3.3-.3.8-.3,1.5,0,0,0,.3-.2.9-.2.5-.4,1-.7,1.4l-.5,1c-.5.7-1,1.5-1.5,2.3,0,0-.2.1-.2.2-.5.6-1.1,1.2-1.7,1.8-.6.6-1.3,1.2-2,1.8-.2.1-.4.3-.6.4,0,0-.1,0-.2.1,0-.2,0-.5.3-1.1.2-.6.4-1.2.7-1.8.3-.6.5-1.3.8-1.8.3-.6.5-1,.7-1.3.1-.2.2-.4.2-.6,0-.4-.1-.7-.4-.9-.3-.2-.5-.3-.8-.3s-.7.1-1,.6c-.3.4-.9,1.1-1.6,1.9-.8.8-1.6,1.6-2.5,2.5-.9.8-1.8,1.6-2.6,2.3-.8.6-1.4,1.1-1.8,1.3-.4.2-.6.2-.7.2,0,0,0,0,0-.1,0-.4.2-1,.6-1.7.4-.7.9-1.5,1.6-2.3.6-.8,1.2-1.6,1.7-2.3.7-.9,1.2-1.7,1.5-2.3.3-.7.5-1.2.5-1.7s-.1-.9-.3-1.2c-.4-.7-1.5-.7-2.1,0-.3.3-.5.8-.4,1.5,0,0,0,.3-.3.8-.2.4-.5.9-.7,1.3-.3.4-.5.7-.6.9-.7.9-1.3,1.8-1.9,2.6-.6.9-1.1,1.7-1.5,2.6-.4.9-.7,1.7-.7,2.6s.1,1,.4,1.4c.2.3.6.7,1.4.7s1.2-.2,2-.6c1-.5,2.2-1.3,3.5-2.3.7-.6,1.5-1.2,2.1-1.8,0,0,0,.2,0,.3-.2.6-.3,1.2-.3,1.7s.1,1.2.5,1.5c.6.6,1.7.6,2.8,0,.5-.3,1-.5,1.4-.8.3-.2.5-.4.9-.7,0,.5.2,1,.5,1.4.7,1,2.1,1.2,3.7.3.7-.4,1.6-.9,2.5-1.6.9-.7,1.9-1.5,2.8-2.3.6-.5,1.1-1.1,1.6-1.6-.1.6-.2,1.3-.4,1.9-.2,1.1-.5,2.2-.8,3.2-1.4.6-2.8,1.2-4.2,1.7-1.5.5-3.1,1-4.6,1.6-1.6.5-3.1,1.2-4.6,1.9-1.5.7-2.9,1.6-4.2,2.7-.9.7-1.6,1.5-2.1,2.5-.5,1-.8,2-.8,2.9s.4,1.9,1.1,2.7c.7.8,1.9,1.1,3.5,1.1s1.7,0,2.5-.3c.8-.2,1.6-.4,2.3-.6,2.2-.8,4.2-2,6-3.5,1.8-1.5,3.3-3.3,4.5-5.2,1.2-1.9,2.1-3.8,2.7-5.8,1.6-.8,3-1.6,4.1-2.6,1.2-1,2.3-2.1,3.4-3.3.3-.3.5-.7.5-1.1s-.1-.6-.3-.9c-.3-.3-.6-.4-.8-.4ZM242.9,250.2c-.6,1.3-1.3,2.6-2.2,3.9-1.1,1.5-2.3,2.9-3.7,4.1-1.4,1.2-2.9,2.1-4.6,2.7-.4.2-1.1.4-2,.7-.9.2-1.7.4-2.5.4s-1.3-.1-1.6-.4c-.3-.3-.4-.6-.4-1s.2-1.1.5-1.7c.4-.7.8-1.2,1.3-1.7,1.4-1.2,3-2.3,4.8-3,1.8-.8,3.6-1.5,5.6-2.1,1.6-.5,3.2-1.1,4.8-1.7Z"/>
        <path class="st3" d="M289.4,240.9c.2-.2.3-.5.3-.7s-.1-.7-.4-.9c-.2-.2-.5-.3-.9-.3s-.6,0-.9.5c-.9,1.2-1.7,2.1-2.3,2.9-.6.7-1.3,1.3-1.9,1.7-.3.2-.6.4-1,.5.2-.3.3-.5.5-.8.4-.6.7-1.2.9-1.8.2-.6.4-1.2.6-1.9.2-.7.2-1.4.2-2,0-1.2-.3-2.2-.9-3-.6-.9-1.7-1.4-3.2-1.4s-2.8.4-3.9,1.2c-1.1.8-1.9,1.7-2.6,2.9-.6,1-.9,2.1-1,3.2-.1,0-.2.1-.3.2-.4.5-.9,1-1.4,1.5-.5.5-1,1-1.6,1.5-.7.6-1.6,1.1-2.6,1.6-1.1.5-2.1.8-3,.8s-.9-.1-1.2-.4c-.2-.2-.4-.6-.4-1s.1-1.1.3-1.7c.2-.7.5-1.4.9-2,.4-.8,1-1.5,1.6-2.2.6-.7,1.3-1.3,2-1.7.7-.4,1.2-.6,1.7-.6s.2,0,.3,0c0,0,0,0,0,.2,0,.3,0,.8-.3,1.3-.3.7-.4.8-.4.9-.3.3-.4.6-.4.9,0,.7.4,1,1.1,1s.7-.2,1-.5c.3-.4.7-1,.9-1.7.3-.7.4-1.4.4-2.1s-.2-1.3-.6-1.7c-.4-.5-1.1-.7-2.1-.7s-2.7.5-3.9,1.4c-1.2.9-2.3,2-3.1,3.2-.6.9-1.1,1.8-1.6,2.8-.5,1-.7,2.2-.7,3.3s.4,2,1.1,2.7c1.3,1.2,3.7,1.4,6.4.4,1.2-.4,2.2-.9,3-1.5.4-.3,1-.8,1.5-1.3,0,.2,0,.3,0,.5,0,.9.2,1.7.7,2.4.5.7,1.3,1,2.4,1s1.9-.2,2.8-.6c.8-.4,1.6-.9,2.2-1.4,1.5,0,2.8-.3,3.9-.8,1.1-.5,2.1-1.3,3-2.3.9-.9,1.7-2,2.6-3.2ZM276.2,246.5c-.5.2-.9.3-1.4.3s-.5-.1-.5-.2c-.1-.2-.2-.5-.2-.9s0-.4,0-.7c.2.3.5.6.9.8.4.3.8.5,1.2.7ZM277.6,237.8c.3-.3.5-.6.5-.9s0-.3,0-.4c.3-.2.6-.3.9-.4.4-.2.9-.2,1.4-.2s1,.2,1.3.5c.3.4.4.9.4,1.6,0,1-.3,2.2-.9,3.5-.6,1.3-1.4,2.4-2.3,3.3-1.2-.1-2.1-.5-2.7-1.1-.6-.6-.9-1.3-1-2,.4-.9.8-1.7,1.3-2.4.6-.9.9-1.3,1.2-1.5Z"/>
        <path class="st3" d="M294.2,236.7c-.7,1.3-1.3,2.7-1.9,4-.6,1.4-1.2,2.7-1.7,4-.5,1.2-1,2.3-1.3,3.2-.3.8-.6,1.4-.6,1.7-.2.8-.5,1.4-1,1.8-.4.4-.9.6-1.3.6-.6,0-1-.4-1-1.1s0-.5.2-.8c.3-.6.6-1.5,1.1-2.6.5-1.1,1-2.3,1.5-3.6.6-1.3,1.2-2.7,1.8-4l1.4-3.2h-1.7c-.4,0-.7-.1-.9-.4-.2-.2-.3-.5-.3-.8s0-.5.3-.8c.2-.3.5-.4.9-.4h2.8l.3-.5c1-1.9,2-3.7,3.1-5.4,1.1-1.7,2.2-3.2,3.4-4.5.6-.6,1.1-1,1.6-1.3,1.3-.6,2.3-.4,2.9.1.5.4.6.6.7.6.3.4.5.9.6,1.4.1.5.2.9.2,1.4,0,.8,0,1.5-.3,2.2-.3,1.1-.9,1.4-1.3,1.4s-.7-.2-.9-.5-.2-.7-.2-1.1c0-.4.1-.8.1-1.3s0-.6,0-.9c0-.3-.1-.5-.2-.6,0-.1-.6,0-1.1.3-.4.3-.9.7-1.3,1.2-.4.5-.8,1-1.2,1.5-.5.8-1.1,1.8-1.8,2.9-.5,1-1.1,2-1.6,3h7.5l.3-.5c1-1.9,2-3.7,3.1-5.4,1.1-1.7,2.2-3.2,3.4-4.5.6-.6,1.1-1,1.6-1.3,1.3-.6,2.3-.4,2.9.1.5.4.6.6.7.6.3.4.5.9.6,1.4.1.5.2.9.2,1.4,0,.8,0,1.5-.3,2.2-.3,1.1-.9,1.4-1.3,1.4s-.6,0-.9-.5c-.2-.3-.2-.7-.2-1.1,0-.4.1-.8.1-1.3s0-.6,0-.9c0-.3-.1-.5-.2-.6,0-.1-.6,0-1.1.3-.4.3-.9.7-1.3,1.2-.4.5-.8,1-1.2,1.5-.5.8-1.1,1.8-1.8,2.9-.5,1-1.1,2-1.6,3h3c.5,0,.8.2.9.4.2.2.3.5.3.8s0,.6-.3.8h0c-.1.2-.4.4-.9.4h-4.2c-.7,1.3-1.3,2.7-1.9,4-.6,1.4-1.2,2.7-1.7,4-.5,1.2-1,2.3-1.3,3.2-.3.8-.6,1.4-.6,1.7-.2.8-.5,1.4-1,1.8-.4.4-.9.6-1.3.6-.6,0-1-.4-1-1.1s0-.5.2-.8c.3-.6.6-1.5,1.1-2.6.5-1.1,1-2.3,1.5-3.6.6-1.3,1.2-2.7,1.8-4l1.4-3.2h-7.5Z"/>
        <path class="st3" d="M332.2,243.4h0c-.3-.4-.8-.5-1.3-.2-.2.1-.3.2-.4.3-.5.6-1.1,1.1-1.7,1.6-.5.5-1.2,1-1.9,1.4-.5.3-1.1.5-1.8.7-.6.2-1.2.3-1.7.3-2,0-3-.9-3-2.8s.1-1.4.3-2.1c0-.1,0-.3.1-.4.1.4.5.6.8.6s1,0,1.6-.2c.6-.2,1.2-.3,1.7-.6.6-.3,1-.5,1.4-.9.8-.7,1.5-1.6,2.1-2.5.7-1,1-2,1-3.1s-.3-1.7-.9-2.1c-.5-.4-1.3-.6-2.2-.6s-1.7.3-2.3.9c-.5.5-1,1.1-1.5,1.6-.8.9-1.5,1.9-2.3,3.1-.7,1.2-1.4,2.4-1.8,3.7-.2.4-.3.9-.4,1.4-.5.5-1.1,1.1-1.7,1.6-.5.5-1.2,1-1.9,1.4-.5.3-1.1.5-1.8.7-.6.2-1.2.3-1.7.3-2,0-3-.9-3-2.8s.1-1.4.3-2.1c0-.1,0-.3.1-.4.1.4.5.6.8.6s1,0,1.6-.2c.6-.2,1.2-.3,1.7-.6.6-.3,1-.5,1.4-.9.8-.7,1.5-1.6,2.1-2.5.7-1,1-2,1-3.1s-.3-1.7-.9-2.1c-.5-.4-1.3-.6-2.2-.6s-1.7.3-2.3.9c-.5.5-1,1.1-1.5,1.6-.8.9-1.5,1.9-2.3,3.1s-1.4,2.4-1.8,3.7c-.5,1.3-.7,2.5-.7,3.7s0,.8.1,1.2c.2,1,.9,1.8,1.9,2.3,2,1,3.9.9,6,.1,1-.4,2.1-.9,3-1.6.4-.3.8-.6,1.2-.9h0c.2,1.1.9,1.9,1.9,2.4,1,.5,1.9.7,2.9.7s2.1-.2,3.1-.6c1-.4,2.1-.9,3-1.6,1-.6,1.8-1.4,2.4-2.2.5-.5.8-1.1.9-1.8,0-.2,0-.3-.2-.5ZM322.7,239.1c.4-.6.9-1.3,1.5-1.9.5-.6,1.1-1.2,1.6-1.6.5-.4.9-.6,1.2-.6,0,0,0,.1,0,.2v.2c0,.6-.2,1.2-.6,1.9-.4.7-.9,1.3-1.3,1.8,0,0-.3.3-.8.5-.4.2-.9.4-1.3.6-.4.2-.7.3-1,.4,0,0-.2,0-.3,0,.2-.4.6-.9,1-1.5ZM310.6,239.1c.4-.6.9-1.3,1.5-1.9.5-.6,1.1-1.2,1.6-1.6.5-.4.9-.6,1.2-.6,0,0,0,.1,0,.2v.2c0,.6-.2,1.2-.6,1.9-.4.7-.9,1.3-1.3,1.8,0,0-.3.3-.8.5-.4.2-.9.4-1.3.6-.4.2-.7.3-1,.4,0,0-.2,0-.3,0,.2-.4.6-.9,1-1.5Z"/>
      </g>
      <path class="st1" d="M180.2,240.1c0-2.5-1.7-4.6-4-5.2,0,0,0,0,0-.1,0-3.7-11.5-4.4-16-4.5-.7-2.1-2.3-4.2-3.8-5.6-.4-.4-.4-.6-.3-.8.3-1.3,3.4-2.9,4.3-3.2.2,0,.4-.1.5-.3.3-.3.4-.7.2-1.1-.2-.4-.5-.6-.9-.6-.5,0-5,1.9-5.9,4.3-.4,1.1-.2,2.2.8,3.1,1.3,1.2,2.3,2.7,3,4.1-3.3,0-17.2.4-17.2,4.5,0,9.8,7.9,17.7,17.7,17.7s9.5-2.1,12.7-5.4c3-.3,9-3.9,9-7ZM158.5,232.3s0,0,0,0c0,.2,0,.3,0,.5,0,.5-.2.9-.5,1.2-.4.4-.5,1-.1,1.4.2.2.5.4.8.4s.5,0,.6-.2c.8-.6,1.2-1.6,1.2-2.7,0-.2,0-.4,0-.5,8.1.2,12.9,1.6,13.5,2.5-.7.9-6.3,2.5-15.6,2.5s-14.9-1.6-15.6-2.5c.7-.9,6.3-2.5,15.6-2.5ZM158.5,250.4c-7.8,0-14.3-5.8-15.5-13.3,4.4,2,14.1,2.1,15.5,2.1s11.1,0,15.5-2.1c-1.2,7.5-7.7,13.3-15.5,13.3ZM173.4,244.3c1.4-2.2,2.3-4.7,2.6-7.3,1.2.5,2.1,1.7,2.1,3.2s-2.5,3.1-4.8,4.2Z"/>
    </g>
  </g>
</svg>