<?xml version="1.0" encoding="UTF-8"?>
<svg id="Layer_1" xmlns="http://www.w3.org/2000/svg" version="1.1" viewBox="0 0 30 30">
  <!-- Generator: Adobe Illustrator 29.4.0, SVG Export Plug-In . SVG Version: 2.1.0 Build 152)  -->
  <defs>
    <style>
      .st0 {
        fill: #c9a32d;
      }
    </style>
  </defs>
  <path class="st0" d="M18.9,24.8c-7,0-13.7-3.9-16.9-10.7-.3-.7,0-1.5.7-1.9.7-.3,1.5,0,1.9.7,3.8,7.9,13.3,11.3,21.2,7.5.7-.3,1.5,0,1.9.7.3.7,0,1.5-.7,1.9-2.6,1.2-5.3,1.8-8,1.8Z"/>
  <g>
    <path class="st0" d="M12.4,13.8s0,0,0,0c-.8,0-1.4-.7-1.3-1.5.2-4.7,3.4-7.9,3.5-8,.6-.5,1.4-.5,2,0,.5.6.5,1.4,0,2h0s-2.5,2.5-2.7,6.1c0,.8-.7,1.3-1.4,1.3Z"/>
    <path class="st0" d="M17.7,16.1s0,0,0,0c-.8,0-1.4-.7-1.3-1.5.2-4.7,3.4-7.9,3.5-8,.6-.5,1.4-.5,2,0,.5.6.5,1.4,0,2h0s-2.5,2.5-2.7,6.1c0,.8-.7,1.3-1.4,1.3Z"/>
  </g>
</svg>